<?xml version="1.0" standalone="no"?>
<!DOCTYPE svg PUBLIC "-//W3C//DTD SVG 1.1//EN" "http://www.w3.org/Graphics/SVG/1.1/DTD/svg11.dtd" >
<svg>
<metadata>
Created by FontForge 20110222 at Mon Mar  7 04:36:32 2011
 By www-data
Generated by Fontographer 4.1
</metadata>
<defs>
<font id="FamilyGuy" horiz-adv-x="873" >
  <font-face 
    font-family="Family Guy"
    font-weight="400"
    font-stretch="normal"
    units-per-em="1000"
    panose-1="2 0 5 3 0 0 0 0 0 0"
    ascent="800"
    descent="-200"
    x-height="728"
    cap-height="783"
    bbox="-1 -206 1503 837"
    underline-thickness="20"
    underline-position="-143"
    unicode-range="U+0020-00D6"
  />
    <missing-glyph />
    <glyph glyph-name="space" unicode=" " horiz-adv-x="500" 
 />
    <glyph glyph-name="exclam" unicode="!" horiz-adv-x="366" 
d="M165 254v1c8 5 21 8 39 8h55c69 0 80 14 99 178c7 61 11 106 11 133c0 176 -27 209 -180 209c-39 0 -76 -4 -109 -13c-27 -44 -41 -143 -41 -298c0 -87 4 -151 13 -191c14 -16 70 -29 113 -27zM285 224l-43 -64l-13 10l43 63zM242 160l-31 -68l-12 2l30 76zM81 208
l-13 -8l-23 34l13 9zM132 80l-14 -2l-50 122l13 8zM19 -17c0 51 29 94 73 94c5 0 11 -1 18 -2c5 9 8 19 8 29c0 8 -2 16 -6 25c14 -35 18 -42 30 -54c54 18 56 19 66 30l68 -40c17 -12 25 -34 25 -67c0 -95 -42 -142 -127 -142c-111 0 -155 36 -155 127zM214 -5
c-8 21 -34 32 -78 32c-31 0 -54 -7 -68 -21v-84c16 -14 31 -21 45 -21h79c15 43 22 75 22 94z" />
    <glyph glyph-name="quotedbl" unicode="&#x22;" horiz-adv-x="499" 
d="M41 703c32 5 62 8 90 8c35 0 76 -3 122 -8c-8 -83 -10 -114 -10 -340c-83 0 -97 1 -176 11c-17 105 -26 190 -26 255v74zM305 363c-15 81 -23 194 -23 340c25 4 51 6 76 6c37 0 81 -4 132 -11c4 -151 2 -187 -24 -335h-161z" />
    <glyph glyph-name="numbersign" unicode="#" horiz-adv-x="879" 
d="M308 553c11 31 29 81 54 148h149l-52 -152c38 5 55 5 90 5l66 -1c25 64 45 112 60 145c23 2 42 3 57 3c25 0 56 -1 91 -3c-13 -49 -31 -100 -52 -153h148c-15 -50 -31 -92 -50 -125l-147 -2c-19 -54 -39 -103 -60 -148l123 -2c-11 -42 -28 -83 -51 -122h-119
c-9 -30 -27 -77 -54 -142h-147c11 46 27 93 46 141c-40 -3 -50 -3 -149 -3c-20 -53 -38 -99 -54 -137c-26 -3 -51 -4 -74 -4c-21 0 -47 1 -77 3c13 38 31 85 53 143h-154c11 36 26 75 43 117l157 4c24 72 43 124 57 158h-137c13 40 30 81 51 125zM414 422l-55 -154l147 1
c15 43 34 94 58 154z" />
    <glyph glyph-name="dollar" unicode="$" horiz-adv-x="511" 
d="M360 40c0 -77 -1 -111 -4 -139c-21 -3 -40 -4 -59 -4s-40 1 -62 4l3 78c-25 -11 -53 -21 -85 -28c-36 83 -60 167 -71 253c95 35 118 70 118 166l-5 127c0 78 29 130 96 175v103c28 5 57 6 118 6v-72c30 6 38 8 99 8c16 -84 16 -95 16 -242c-60 -10 -76 -43 -78 -156
l-1 -87c-1 -103 -19 -143 -85 -192z" />
    <glyph glyph-name="percent" unicode="%" horiz-adv-x="1059" 
d="M479 533c0 -128 -100 -228 -229 -228s-229 98 -229 228c0 131 100 229 232 229c127 0 226 -102 226 -229zM266 453c0 -26 21 -46 47 -46c27 0 48 20 48 46s-21 47 -48 47s-47 -20 -47 -47zM756 760c76 -1 132 -4 167 -8c-225 -288 -408 -543 -550 -764
c-78 0 -121 0 -158 4c210 322 390 578 541 768zM1089 209c0 -128 -100 -228 -229 -228s-229 98 -229 228c0 131 100 229 232 229c127 0 226 -102 226 -229zM876 130c0 -27 20 -47 48 -47c26 0 47 20 47 46s-21 47 -48 47c-25 0 -47 -21 -47 -46z" />
    <glyph glyph-name="ampersand" unicode="&#x26;" horiz-adv-x="447" 
d="M189 558l-2 14c-29 -1 -63 -3 -101 -7c-5 31 -7 61 -8 90c53 8 105 12 154 12c20 0 44 -1 73 -4v-106c58 -10 110 -29 156 -58c-27 -96 -57 -166 -92 -210c-11 7 -21 10 -28 10c-23 0 -35 -11 -35 -34c0 -10 5 -19 15 -26c-37 -9 -55 -30 -55 -63c0 -37 25 -58 75 -61
c10 -30 17 -58 21 -85c-19 -12 -37 -21 -55 -27v-113h-138c1 7 4 41 8 108c-63 15 -105 67 -105 131c0 37 18 71 53 103c-73 29 -109 78 -109 147c0 94 69 165 173 179z" />
    <glyph glyph-name="quotesingle" unicode="'" horiz-adv-x="264" 
d="M41 703c32 5 58 8 80 8c29 0 73 -4 132 -13c4 -37 6 -64 6 -81c0 -66 -9 -151 -28 -254c-52 1 -107 4 -164 11c-17 105 -26 190 -26 255v74z" />
    <glyph glyph-name="parenleft" unicode="(" horiz-adv-x="318" 
d="M243 837c32 -17 65 -43 98 -78c-88 -139 -132 -277 -132 -414c0 -129 39 -260 116 -393c-41 -35 -100 -66 -177 -95c-89 136 -133 275 -133 416c0 174 63 329 228 564z" />
    <glyph glyph-name="parenright" unicode=")" horiz-adv-x="336" 
d="M43 741c39 30 98 62 179 96c86 -131 129 -272 129 -423c0 -189 -74 -373 -221 -551c-35 24 -68 50 -99 78c88 141 132 277 132 408c0 113 -40 243 -120 392z" />
    <glyph glyph-name="asterisk" unicode="*" horiz-adv-x="419" 
d="M120 480c-38 10 -67 19 -87 27c7 40 19 85 38 135c24 -5 53 -15 89 -28v91c34 5 44 6 139 6v-94c40 15 69 25 87 29c19 -37 35 -80 49 -131c-19 -9 -49 -19 -89 -30c25 -31 43 -56 54 -73c-27 -29 -64 -58 -110 -87c-13 15 -32 41 -55 76c-25 -38 -43 -63 -53 -75
c-38 20 -77 46 -117 78c9 14 27 39 55 76z" />
    <glyph glyph-name="plus" unicode="+" horiz-adv-x="501" 
d="M80 272l-56 -4c-4 32 -6 63 -6 93c0 12 1 28 3 49c37 4 96 7 175 8c2 65 5 122 10 173l141 2c-6 -51 -9 -110 -10 -176h179v-147c-45 3 -58 4 -178 4c0 -67 3 -125 8 -175c-42 -3 -74 -5 -97 -5c-18 0 -33 1 -46 3c-5 60 -7 119 -7 178z" />
    <glyph glyph-name="comma" unicode="," horiz-adv-x="285" 
d="M51 246c42 5 79 8 111 8c41 0 82 -3 123 -10c7 -33 10 -67 10 -103c0 -200 -86 -309 -257 -327c11 80 16 171 16 272c0 41 -1 94 -3 160z" />
    <glyph glyph-name="hyphen" unicode="-" horiz-adv-x="267" 
d="M2 438c46 2 87 3 123 3c50 0 94 -2 130 -6v-190c-78 11 -143 17 -194 17h-59v176z" />
    <glyph glyph-name="period" unicode="." horiz-adv-x="281" 
d="M285 274l-43 -64l-13 10l43 63zM242 210l-31 -68l-12 2l30 76zM81 258l-13 -8l-23 34l13 9zM132 130l-14 -2l-50 122l13 8zM19 33c0 51 29 94 73 94c5 0 11 -1 18 -2c5 9 8 19 8 29c0 8 -2 16 -6 25c14 -35 18 -42 30 -54c54 18 56 19 66 30l68 -40c17 -12 25 -34 25 -67
c0 -95 -42 -142 -127 -142c-111 0 -155 36 -155 127zM214 45c-8 21 -34 32 -78 32c-31 0 -54 -7 -68 -21v-84c16 -14 31 -21 45 -21h79c15 43 22 75 22 94z" />
    <glyph glyph-name="slash" unicode="/" horiz-adv-x="467" 
d="M328 723v1l172 -1c-146 -290 -259 -546 -338 -768c-25 -3 -51 -4 -78 -4c-31 0 -60 2 -85 5c126 332 236 587 329 767z" />
    <glyph glyph-name="zero" unicode="0" horiz-adv-x="676" 
d="M540 743l-20 6v4l20 -6v-4zM517 751h-34v5h34v-5zM552 660h-4v31h4v-31zM480 749h-13v4h13v-4zM583 746c-25 -11 -47 -24 -66 -38c0 -18 -7 -28 -38 -31c-3 -3 -9 -6 -16 -10c0 1 3 4 9 10c-21 16 -21 20 -21 37c-5 3 -10 4 -17 4c-10 -5 -11 -5 -12 -5s-9 4 -11 5
c-3 0 -6 -2 -9 -5c0 3 3 7 11 15c0 -5 1 -7 4 -7l20 1l13 -4c2 1 5 3 9 7c-4 7 -10 11 -19 11c-8 0 -16 -2 -23 -7c4 3 6 5 10 9c-1 4 -5 6 -10 6c-6 0 -14 -5 -23 -15c7 12 14 18 23 18c14 -5 15 -5 18 -5l28 6c0 -1 -7 -4 -20 -8c7 -6 12 -9 17 -9c2 0 9 4 24 11
c12 0 24 -9 35 -27c9 4 35 20 35 21c0 2 -4 4 -11 7c9 -3 13 -4 15 -4s8 2 25 7zM605 692c-7 -69 -17 -158 -18 -159c2 9 4 25 6 47l-1 69c-11 -7 -19 -10 -22 -10c-8 0 -14 5 -17 14c0 -8 5 -12 15 -12c21 0 37 16 37 51zM444 664c-7 0 -21 8 -21 16v9c3 -15 11 -24 21 -25
zM442 706c-5 0 -8 -2 -16 -14c-3 3 -9 5 -16 5l-79 -2l50 2c7 0 12 1 15 4c-3 6 -8 9 -15 9c-1 0 -7 -2 -17 -7c7 3 15 9 26 17c0 -3 -1 -5 -2 -6c18 -14 20 -15 27 -15c3 0 12 2 27 7zM581 431h-4v31h4v-31zM327 691h-18v4h18v-4zM493 503l-18 3v5l18 -3v-5zM584 360h-5v59
h5v-59zM472 509h-34v4h34v-4zM305 690c-16 -1 -37 -20 -37 -33c-5 11 -11 27 -19 48c3 -8 10 -20 19 -37c18 15 29 22 37 22zM585 476c-5 -7 -6 -9 -8 -11l-6 5c-35 -7 -63 -11 -82 -11c-1 0 -55 6 -63 8c-2 0 -5 -2 -9 -6c6 -12 8 -19 8 -20c4 -6 10 -9 17 -9
c-31 2 -37 6 -67 24c-14 8 -25 12 -32 12h27c0 3 1 5 4 8c0 -3 -2 -6 -5 -9c3 -5 10 -11 20 -18c4 3 13 8 28 15c-2 4 -21 19 -25 19l-13 -8c0 1 -9 4 -27 9c14 0 29 -2 33 -3c3 0 5 7 8 22c-20 3 -27 4 -53 4h68c7 -15 44 -24 63 -24c13 0 46 7 97 22c11 3 14 9 14 20
c1 -11 2 -28 3 -49zM581 328h-4v20h4v-20zM244 658h-5v23h5v-23zM579 307h-5v15h5v-15zM461 429h-12v5h12v-5zM259 618l-8 -4v4l6 3zM522 353h-12v4h12v-4zM285 581l-14 -6v3l13 6zM359 603c0 -33 -10 -47 -45 -64c0 -22 4 -32 13 -32h5h-9c-1 0 -1 -1 -1 -4
c0 -13 5 -22 14 -33v-2c0 -6 4 -10 12 -10c-10 -1 -26 -6 -47 -16c3 -7 9 -12 18 -13h-8c-1 -3 -2 -6 -2 -9c0 -4 1 -8 4 -13l-6 8c-3 17 -4 19 -12 24c2 4 8 8 19 12s17 7 18 10l-60 193c31 6 47 10 47 11h-2c28 0 42 -21 42 -62zM269 593l-26 -3v5l26 3v-5zM240 612l-7 -3
v4l6 3zM266 572h-7v4h7v-4zM346 489l-2 -4l-14 6v4zM259 570l-8 -3v4l6 3zM280 541l-20 -9v4l18 9zM226 666c-7 7 -13 10 -19 10c-8 0 -31 -10 -125 -55c85 43 113 57 124 57c6 0 13 -4 20 -12zM226 565c-10 23 -19 34 -28 34c12 0 12 -1 28 -34zM504 353
c-20 -5 -34 -7 -42 -7c-38 0 -58 12 -86 34c-18 0 -23 -2 -23 -9c0 -5 4 -10 11 -13c-6 0 -9 -2 -9 -7c-1 11 -7 22 -18 33s-16 20 -17 25c19 -26 21 -29 40 -29h22c32 -26 42 -27 122 -27zM253 530h-15v4h15v-4zM279 520l-52 -16v3l52 17v-4zM298 471l-18 3v5l18 -3v-5z
M193 594l-40 -19v3l38 20zM232 527h-10v5h10v-5zM232 556c0 -2 -16 -10 -47 -25c14 7 45 25 45 26v4c1 0 2 -2 2 -5zM329 424h-7v5h7v-5zM62 731l-25 -61l-4 2l25 59h4zM274 472h-7v4h7v-4zM219 525l-8 -3v4l7 3zM417 326c-34 28 -38 30 -45 30h6zM261 488l-28 -11v4l27 11z
M214 635c-91 -45 -140 -67 -148 -67s-14 9 -21 36c8 3 20 8 34 16c-6 -3 -16 -9 -29 -17c5 -24 7 -32 14 -33zM245 712l-6 3c-36 -19 -72 -36 -107 -49c26 7 85 53 85 61c-7 3 -11 2 -106 -64c0 -3 3 -4 8 -4l-60 -23c-21 -9 -36 -19 -46 -29l128 -200c-2 7 -11 22 -26 45
c-62 74 -107 141 -107 159l25 57c-15 -34 -16 -37 -16 -43c0 -3 1 -5 2 -7c16 10 25 16 26 18l5 -2c21 0 63 66 63 89c0 11 -4 18 -11 21c-25 -17 -43 -46 -54 -85c9 35 26 65 51 91c11 -7 17 -16 17 -27c0 -12 -33 -69 -40 -75c8 -4 22 -2 30 29c5 4 10 12 17 21l-15 -24
v-7c16 4 24 12 24 24c3 -4 4 -5 6 -5c1 1 9 6 23 15c-24 37 -43 66 -57 86c-15 -7 -29 -24 -41 -53c2 10 15 29 39 58c18 -23 38 -52 61 -87c12 8 52 29 53 29c5 0 14 -7 29 -22zM280 449l-10 -4v4l8 3zM295 424h-7v5h7v-5zM287 421h-7v5h7v-5zM303 403h-18v5h18v-5zM48 642
h-4v12h4v-12zM314 385l-18 -6v4l17 6zM356 333l-10 -4v4l9 3zM232 456h-15v4h15v-4zM262 445c-10 0 -24 -4 -43 -11c13 8 26 12 37 12zM342 332l-15 3v4l15 -3v-4zM269 419l-36 -10v4l36 10v-4zM113 551h-7v4h7v-4zM121 540h-7v5h7v-5zM142 516h-7v5h7v-5zM195 494l-49 -22
v4l48 21zM308 350h-15v5h15v-5zM102 548h-12v5h12v-5zM134 514h-7v4h7v-4zM290 353h-10v4h10v-4zM108 538l-13 -6v4l12 6zM258 377h-15v4h15v-4zM189 453c-3 6 -8 9 -14 9c-8 0 -17 -3 -27 -10l30 15c4 -4 8 -9 11 -14zM125 512l-13 -9l-2 4l12 9zM274 356h-15v4h15v-4z
M240 374h-7v5h7v-5zM179 439c-6 -6 -11 -9 -14 -9c-5 0 -10 4 -14 13c7 -7 11 -10 13 -10s7 2 15 6zM187 422c-5 -1 -14 -3 -23 -7c8 5 13 7 14 7h9zM213 363h-9v5h9v-5zM197 377h-12v4h12v-4zM323 337h-52c-19 -14 -28 -27 -28 -40c0 -3 1 -6 2 -9c-1 3 -3 9 -6 16
c-18 -9 -27 -16 -27 -19c0 5 10 13 31 22c4 3 10 13 18 30h62zM221 348h-12v4h12v-4zM200 361h-12v4h12v-4zM195 351l-3 -4h-10zM699 219c0 -1 0 -4 -4 -15c-5 -1 -14 -6 -27 -13v-9l25 -291h-41l-24 284c-1 1 -3 2 -6 2c-66 -25 -80 -30 -85 -31c-62 -15 -62 -16 -62 -23
l18 -177c-7 -3 -17 -6 -29 -7c-5 -5 -7 -10 -7 -13c4 -10 4 -10 4 -11v-99h-47l3 312c-47 15 -71 23 -74 23c-2 0 -4 -1 -5 -2c-7 -16 -22 -27 -43 -33c28 8 53 43 53 75c0 5 -1 10 -2 15c7 0 13 2 18 7c-5 9 -17 19 -36 32l-44 30c-14 -9 -24 -19 -29 -29c5 8 13 20 23 37
c79 -62 140 -93 185 -93c58 0 95 38 111 114c0 -5 -2 -14 -7 -28c6 -4 12 -6 19 -6c5 0 13 2 25 5c0 -9 0 -10 -2 -14c87 -23 90 -27 90 -42zM164 360h-3l-20 40l4 2zM252 232l-3 -17h-5l3 17h5zM285 113c-9 3 -23 5 -41 8h12c2 5 6 13 9 25c-3 -5 -4 -10 -4 -15
c0 -9 8 -15 24 -18zM248 181c-29 -21 -29 -22 -29 -30c0 -11 4 -17 11 -19c4 13 8 22 12 27c-8 -22 -8 -22 -8 -25c0 -5 3 -9 8 -11h-10l-19 -230h-39l19 293c-1 0 -2 2 -4 7c-22 10 -25 13 -25 24c0 7 10 15 31 25c0 21 0 21 12 39c-8 -11 -12 -20 -12 -26
c0 -8 2 -12 7 -12c2 0 8 3 17 9c-11 -1 -16 -8 -16 -21c0 -11 19 -25 33 -25c1 0 5 0 12 2v-27zM511 713v9c-9 11 -18 17 -27 17c-13 0 -21 -8 -25 -23c2 0 4 -1 5 -2l-7 -6c5 -3 11 -7 16 -14c8 4 18 9 31 16c-3 3 -7 5 -13 5c-3 0 -8 -3 -17 -8c-1 2 -3 6 -7 9l32 2
c3 -3 7 -5 12 -5zM514 707c-9 0 -9 0 -39 -13v-13h19c7 0 19 18 20 26zM421 442c-2 0 -4 3 -8 12c-2 0 -7 -2 -15 -5c9 -5 16 -7 23 -7zM609 267v-1l-44 1c-3 -12 -7 -22 -14 -31h22c19 0 24 5 36 31z" />
    <glyph glyph-name="one" unicode="1" horiz-adv-x="846" 
d="M877 393c-1 0 -4 -22 -9 -67c-50 -60 -55 -65 -83 -65c-6 -54 -38 -92 -189 -248c-94 -96 -102 -124 -109 -164c-19 -15 -39 -22 -58 -22c-14 0 -53 12 -66 28c-5 7 -9 21 -12 43c-4 26 -28 63 -72 112c-129 139 -131 144 -199 274c-20 31 -37 54 -51 69
c-5 37 -9 63 -9 69c0 7 4 18 11 35c8 17 12 28 12 35c12 13 30 30 54 53c9 1 23 3 41 4c13 16 44 49 91 98c-3 5 -4 11 -4 18c0 38 50 90 97 105c17 1 44 6 79 15l-24 -26c-4 5 -13 7 -27 7s-59 -28 -59 -34l-5 3c0 3 0 4 -7 4c-11 0 -27 -22 -48 -65c1 -6 5 -14 11 -24
c50 37 78 55 84 55c5 0 15 -3 28 -8c43 -16 57 -20 126 -20c7 1 118 14 119 14c36 0 144 -104 156 -140c-19 -17 -33 -38 -42 -61c-17 -4 -26 -13 -26 -27l4 -28c-12 -15 -18 -25 -18 -30c0 -8 3 -12 29 -36c0 -40 2 -45 22 -45c5 0 13 4 24 13s19 14 24 14c4 0 7 -1 7 -2
v-3c0 -1 3 -2 7 -2c8 0 17 16 28 48c-1 -5 -2 -9 -2 -14c0 -21 12 -39 36 -54c4 0 9 4 14 11c0 22 1 29 8 53c0 10 -2 14 -15 34c0 25 -7 86 -57 115c0 19 0 22 -41 68c0 5 -2 10 -4 19c-21 15 -38 35 -51 60h-35c0 41 -9 51 -52 57c-3 21 -13 32 -30 32c-2 0 -8 -3 -34 -14
c-5 0 -13 4 -24 12s-19 12 -24 12c28 -11 44 -17 51 -17c5 0 10 2 15 6c5 5 11 7 16 7c6 0 19 -11 40 -33c7 0 18 -3 33 -8c4 -2 10 -14 17 -36c1 -3 5 -5 12 -7c23 -9 26 -10 32 -24l10 -22c31 -12 73 -73 78 -103c7 -7 19 -18 34 -34zM837 310c0 13 -11 24 -32 34
c-2 -9 -6 -23 -13 -41c-1 9 -5 21 -12 34c-47 -19 -48 -19 -67 -19c-31 39 -46 68 -46 87c0 7 2 14 7 20l10 10c-3 11 -3 12 -3 40c40 43 60 68 60 77c0 32 -19 51 -84 99c-31 22 -49 33 -55 33c-56 -6 -114 -13 -122 -13c-37 0 -80 5 -128 15c-11 8 -20 12 -26 12
c-49 0 -185 -146 -202 -186c-28 -65 -42 -126 -42 -181c0 -73 35 -137 132 -239l90 -94c28 -30 37 -54 64 -135c5 -14 40 -29 64 -29c18 0 34 6 48 17c6 51 23 82 191 255c71 73 106 123 106 150c0 5 -1 10 -2 14c40 0 62 8 62 40zM129 540h-32c-19 -27 -35 -43 -47 -48
c0 -1 -16 -46 -23 -66c0 -7 2 -23 9 -72c21 -28 35 -45 37 -47c0 81 19 158 56 233zM612 378c0 -51 -30 -88 -71 -88c-42 0 -72 36 -72 88c0 49 32 89 72 89c41 0 71 -38 71 -89zM340 371c0 -52 -30 -88 -75 -88s-75 48 -75 88c0 47 36 96 75 96c42 0 75 -42 75 -96zM469 45
c-6 -43 -8 -55 -37 -55c-6 0 -14 3 -23 10s-16 11 -21 11c-10 -3 -23 -7 -24 -7c-23 0 -38 14 -38 34c0 5 5 13 14 24s14 19 14 24c0 14 -5 33 -16 56c-1 2 -7 5 -16 8c0 22 0 22 5 27c-46 20 -48 23 -48 41c0 17 17 39 50 66c29 24 41 40 41 74c1 -6 2 -12 2 -17
c0 -17 -14 -37 -43 -61s-43 -45 -43 -62s11 -25 32 -25c89 8 96 8 101 8h39c2 3 2 8 2 15c0 4 0 12 -2 33c6 -10 9 -20 9 -30c0 -8 -2 -16 -6 -24c-22 0 -26 0 -60 6c-20 0 -64 -22 -75 -37l6 -7c95 -16 115 -22 130 -57h-56c-15 0 -31 4 -48 13c0 -32 0 -33 -15 -52
c-7 -8 -10 -16 -10 -23c0 -18 9 -27 27 -27c2 0 19 5 24 7c5 0 13 -4 24 -11s19 -10 24 -10c27 0 37 17 37 48zM605 376v27c-19 38 -40 57 -64 57c-26 0 -64 -33 -64 -59v-25h128zM605 356l-128 14l9 -33l18 14c3 -6 12 -16 13 -17l-14 -13c9 -16 21 -24 38 -24
c27 0 48 20 64 59zM332 379c0 46 -43 81 -63 81c-21 0 -37 -10 -49 -31l-22 -50h134zM333 347v23h-135c0 -7 1 -10 9 -36c0 7 6 10 17 10c7 0 11 -1 14 -4c-6 -12 -15 -18 -27 -18c21 -21 41 -32 58 -32c27 0 64 33 64 57zM448 107c0 9 -2 16 -7 23c-25 11 -45 17 -58 17
h-28v-26c15 -2 47 -6 93 -14z" />
    <glyph glyph-name="two" unicode="2" horiz-adv-x="846" 
d="M655 -190h-60v6h60v-6zM879 379c-24 -50 -24 -55 -24 -68c0 2 -2 4 -5 8c-5 -5 -9 -8 -12 -8c-6 6 -9 11 -9 15s12 26 35 65c10 0 15 -4 15 -12zM592 581h-6v21h6v-21zM596 550h-7v22h7v-22zM842 269l-5 -15l-5 2l4 13h6zM297 591l-4 -75h-7l4 75h7zM849 296
c-1 0 -2 -4 -2 -11l1 5c-7 5 -17 13 -32 25c-17 -29 -32 -58 -44 -88c14 -9 25 -14 33 -14c10 0 11 0 23 30c0 -94 -39 -125 -71 -125c-2 1 -14 5 -35 11c-9 -4 -10 -8 -10 -28c9 -9 18 -13 26 -13c6 0 12 6 18 19c0 -71 12 -113 62 -192c-4 0 -9 -1 -28 -5
c-11 0 -27 4 -48 12c-21 7 -37 11 -48 11h-29c-1 -1 -2 -3 -2 -6s1 -7 3 -12c-64 -3 -79 -7 -91 -29c2 0 11 -2 14 -3c4 0 7 2 10 5c-16 -15 -26 -37 -31 -67c3 -3 8 -4 17 -4c-18 2 -28 3 -35 3c4 19 23 62 27 66c-18 8 -38 -26 -38 -58l5 -4c-1 1 -11 2 -29 3
c5 12 14 30 27 54c-9 2 -29 5 -59 10v16c-6 0 -20 -2 -61 -9c-18 0 -30 1 -37 4v-5c0 -4 1 -9 4 -16c0 4 -6 9 -16 14h-17c3 -15 9 -35 19 -60c-12 -2 -28 -6 -48 -12c0 48 0 59 -40 87c13 -13 22 -19 27 -19l8 4c3 0 3 0 28 -62c1 0 2 2 2 7c0 45 -12 62 -52 78
c-21 7 -37 11 -50 11c-29 0 -62 -18 -69 -38c3 9 12 18 27 28c-8 0 -39 -5 -83 -13c-20 0 -22 1 -45 20l75 209c-41 8 -75 42 -75 63c0 6 10 23 30 51h-13c1 1 2 2 5 11c-6 7 -10 10 -12 10v-2c0 -2 1 -5 4 -9c-20 12 -62 54 -62 67c8 -24 34 -54 55 -54c-5 5 -15 18 -29 39
c25 -36 36 -47 52 -50c-6 11 -15 23 -27 36l36 -43c1 1 2 2 2 3s-3 22 -13 84c1 0 2 -3 4 -7v5c0 4 -2 9 -4 14c-3 -3 -4 -5 -4 -8c-7 21 -18 32 -34 33c4 0 15 -5 33 -14c0 3 -4 8 -15 19c15 -14 27 -32 28 -42c0 -1 -1 -8 -3 -23c4 0 7 2 7 7v-21c2 2 3 6 3 11v-19
c0 -7 3 -13 8 -19c5 7 9 20 10 37c14 6 15 7 81 106c5 18 22 35 50 50c0 3 1 9 2 18c5 5 12 13 20 24c5 -34 15 -54 28 -61l2 2c-10 62 -16 93 -17 93v-2c0 37 11 73 34 110l-2 6c-19 -18 -31 -35 -37 -50l7 21c-11 14 -14 18 -14 23c14 27 14 29 20 68c8 52 29 64 122 66
c104 0 156 -23 156 -70c-6 -38 -9 -62 -9 -68c0 -12 0 -12 86 -44v-17c-3 -3 -9 -5 -17 -5c-12 0 -36 9 -72 27c0 31 -25 52 -78 64c-3 -8 -4 -21 -4 -38c4 4 6 9 6 15l5 -34c9 14 14 25 14 34l8 -7c5 1 8 3 8 5c0 -1 2 -11 5 -18v-17c-3 -3 -9 -4 -19 -4
c-5 -23 -7 -43 -8 -58l6 -3l9 15c0 -18 -2 -55 -7 -110c36 13 66 52 63 89l-1 -33c20 -19 26 -28 26 -34c23 -6 30 -17 120 -161c22 0 34 -14 52 -43c7 11 19 27 36 50l-4 -6c9 -9 20 -16 31 -21zM670 -99h-22v6h22v-6zM639 -103h-17v7h17v-7zM620 -107v7h-10v-7h10z
M677 -186h-17v6h17v-6zM374 80c0 -15 -5 -18 -17 -18c-2 4 -4 10 -4 19c0 21 4 36 10 41c0 -24 1 -42 3 -53c2 2 3 4 8 11zM107 329l-4 -4l-40 40l4 4zM109 281c-37 72 -47 86 -68 91c-3 -4 -4 -8 -4 -12s1 -9 4 -14c-2 3 -7 10 -13 22c-3 -6 -3 -10 -3 -19c0 9 -2 14 -5 16
h-5c5 10 15 17 28 22l19 -6c-6 0 -12 -1 -17 -4c17 -11 39 -43 64 -96zM81 306l-5 -3l-36 51l5 4zM54 320h-5l-9 16l6 2zM32 331h-7v10h7v-10zM13 331h-7v18h7v-18zM502 -168c-8 0 -14 4 -24 15v25c0 -31 6 -40 24 -40zM395 -129l-4 -29h-6l4 29h6zM321 -183h-74v7h74v-7z
M234 -179h-18v7h18v-7zM211 -175h-10v7h10v-7zM172 -143h-7v14h7v-14zM198 -166l-4 -5l-24 20l3 5zM588 636l-25 25l-3 -4l24 -25zM598 629h-14c1 -6 4 -12 7 -19c5 3 7 10 7 19zM545 666v6l-63 15v-5zM587 720c0 38 -83 65 -150 65c-43 0 -79 -8 -106 -25
c-16 -64 -16 -64 -16 -81c37 15 71 22 103 22c60 0 144 -21 160 -45c6 30 9 51 9 64zM537 615v14c-2 -1 -11 -4 -14 -4c0 -7 5 -10 14 -10zM469 674v5l-44 8v-6zM480 685v6l-97 4v-6zM473 671h-52v-18c5 -5 13 -8 22 -8c23 0 30 9 30 26zM378 685v6h-18v-6h18zM386 673v7
l-22 4v-7zM355 681v6h-10v-6h10zM393 670c-11 1 -25 4 -44 8c0 -5 -3 -8 -8 -8c8 -27 10 -29 23 -29c18 0 28 10 29 29zM727 312c-5 13 -16 33 -31 60c-20 -3 -42 -10 -67 -20l-4 -26c1 -5 9 -23 24 -56c36 27 62 41 78 42zM529 553c-16 -11 -17 -11 -18 -11c5 35 7 60 7 75
c-8 -6 -9 -7 -14 -7c-3 0 -4 2 -4 6c0 1 0 4 3 21l-8 -8v49h-17c0 -29 -8 -37 -35 -37c-17 0 -26 9 -26 26c0 9 1 15 3 18h-26c0 -9 2 -16 7 -20c-19 -21 -22 -28 -22 -45c0 -11 2 -18 5 -21h23c1 0 5 2 13 7v-4c-7 -5 -15 -7 -22 -7c-18 0 -27 8 -27 23c0 3 1 9 3 19
c-22 0 -25 0 -31 11c-21 -41 -32 -76 -32 -104c0 -14 7 -44 20 -91c30 -16 60 -24 91 -24c30 0 92 21 95 35c3 13 6 29 8 46zM318 642c-3 7 -4 12 -4 24c-2 0 -7 -4 -15 -12c6 -10 9 -12 19 -12zM784 268c0 10 -29 43 -40 43c-32 0 -93 -31 -93 -58c0 -20 10 -27 56 -51
c-2 -4 -3 -8 -3 -12c0 -9 4 -16 13 -23v41c0 11 5 22 15 31c-3 -9 -4 -24 -4 -45h25c11 14 31 62 31 74zM822 208c-23 0 -39 4 -48 12c-4 -11 -11 -22 -20 -32c6 -10 7 -10 41 -20c0 -2 -1 -4 -2 -5c-7 1 -19 6 -65 27c-4 -13 -5 -15 -5 -21c7 -6 15 -14 23 -25
c-9 2 -17 9 -24 20c-7 -7 -10 -13 -10 -18c6 -6 39 -24 44 -24c27 0 66 33 66 86zM615 260l-6 2l-16 -28l6 -3zM632 268c-13 6 -33 13 -59 20c-19 -25 -30 -42 -31 -52c15 -1 23 -9 24 -25c1 -19 4 -29 9 -32c0 20 1 35 3 45c5 -1 12 -4 19 -7c9 12 21 29 35 51zM568 141v29
c-9 8 -16 12 -21 12h-62v-48c27 -4 40 -5 45 -5c13 0 25 4 38 12zM452 162l-5 2l-5 -10l5 -2zM469 139v31c-7 8 -12 12 -15 12c-11 0 -24 -3 -41 -8l4 -35h52zM477 154c0 17 -12 32 -24 32c-13 0 -27 -3 -44 -8v-40c11 -6 20 -9 25 -9c29 0 43 8 43 25zM481 162
c0 13 -4 23 -13 28h-66v-64h75zM367 183v62c0 4 -1 7 -2 8h-3c0 18 -5 28 -27 28c-15 0 -31 -13 -32 -25c5 -10 13 -16 24 -18l29 -5v-50h11zM265 348c-27 19 -49 28 -68 28c-7 0 -28 -33 -34 -53c12 0 37 -11 74 -34c7 14 17 34 28 59zM286 207c0 15 0 19 -4 25
c-5 -10 -9 -15 -10 -16c-6 11 -9 17 -9 18c-4 -10 -4 -16 -4 -27c7 -3 11 -5 11 -43c4 10 6 22 7 35c3 4 6 7 9 8zM231 277c0 17 -50 42 -68 42c-3 -1 -15 -4 -19 -5c-7 -28 -11 -46 -11 -48c0 -9 7 -20 22 -33c-4 -7 -6 -16 -6 -27c0 -16 6 -24 18 -24c4 0 8 1 14 5l-5 22
c5 -5 8 -7 10 -7v-23h14c0 20 1 25 3 41l-1 -6c0 -1 2 -1 4 -1c13 0 18 23 25 64zM125 239l-10 5l-2 -5l10 -5zM189 174l-21 5c-5 -9 -13 -20 -24 -33c8 -4 10 -5 15 -5c12 0 15 4 30 33zM148 194c0 3 -3 11 -9 22c-12 -5 -17 -6 -22 -6c0 9 -3 14 -12 24l-1 2
c-14 -21 -21 -34 -21 -38c0 -18 9 -27 27 -27c16 0 38 13 38 23zM447 659l-11 -4v5l9 5zM371 659l-11 -4v5l9 5zM430 459c0 -13 -4 -19 -13 -19l-7 4h-27c-5 11 -8 22 -8 32c0 6 3 12 9 19c-4 -4 -6 -10 -6 -18h46c-18 0 -25 -1 -42 -10v-18h33c7 0 12 3 15 10zM600 264
l-17 -29l-5 3l16 28zM585 271l-25 -29l-5 4l24 28zM340 261h-17v6h17v-6zM163 177c-13 -19 -23 -29 -32 -29c-5 0 -13 6 -25 18c24 0 35 5 43 20c4 -1 8 -5 14 -9zM397 134c-3 11 -4 27 -4 48c-57 -8 -110 -19 -158 -34v-31c0 -9 3 -17 9 -22c65 21 116 34 153 39zM651 156
c0 -21 -3 -39 -8 -53c-22 9 -49 19 -82 28c10 5 15 13 15 24c0 6 -1 13 -4 20c18 0 18 0 79 -19z" />
    <glyph glyph-name="three" unicode="3" horiz-adv-x="1084" 
d="M1103 467c0 -15 -2 -28 -5 -39c-5 -17 -8 -37 -8 -60c4 -61 5 -95 5 -96c0 -22 0 -22 -40 -92c-33 -96 -42 -119 -84 -164c-3 -4 -8 -14 -15 -31c-12 -35 -23 -57 -140 -113c-15 -4 -41 -12 -78 -25c-39 -16 -66 -24 -81 -24c-10 2 -82 14 -83 14c-201 6 -202 6 -250 38
c-35 23 -56 37 -63 40c-112 40 -113 46 -127 143c-72 116 -89 190 -89 250c0 59 14 101 43 127c30 26 34 40 41 100c7 50 23 64 96 111c22 14 32 29 78 111c13 17 36 21 73 23c59 -2 66 -2 67 -2l78 6c13 0 34 -4 61 -13s47 -13 60 -13h102c8 0 23 -8 44 -25
c46 -36 53 -40 122 -55c94 -18 121 -34 136 -85c1 -5 12 -20 33 -45c16 -19 24 -46 24 -81zM948 427c0 19 -5 22 -29 32c-64 119 -189 196 -319 196c-206 0 -332 -103 -380 -280c-5 -17 -12 -29 -22 -36c-5 -4 -8 -11 -8 -20c0 -11 2 -13 35 -27c90 -111 145 -138 322 -138
c207 0 268 73 373 235c27 25 28 27 28 38zM717 83c0 20 -11 25 -32 25l9 -10c-3 -2 -8 -7 -16 -14c13 0 15 0 16 -3c-4 -9 -6 -16 -6 -20h12c11 7 17 14 17 22zM691 116c-27 27 -42 41 -45 41l-96 -11c23 -33 39 -50 50 -50c10 5 10 5 16 6c4 0 5 0 19 -3c2 0 7 4 14 11
c-5 4 -12 10 -19 18c4 -3 11 -7 21 -12h40zM730 -6v14c-20 7 -30 18 -30 31c0 5 1 11 4 17c-5 -2 -8 -2 -10 -2c-3 0 -7 3 -11 9v13l-4 2c-3 1 -4 4 -4 7l9 14c0 1 -1 3 -3 9h-27l-8 -7c2 -5 3 -11 4 -20c13 -8 16 -16 16 -84c9 -7 21 -11 35 -11c12 0 22 3 29 8zM627 94
c-3 1 -5 2 -8 2c-5 0 -10 -2 -15 -6c5 -2 9 -3 10 -3c4 0 8 2 13 7zM685 -32c-27 27 -27 28 -27 66c-9 -2 -17 -3 -26 -3s-18 1 -27 3l-4 -37c3 -7 4 -17 4 -29c22 -9 37 -14 46 -14c13 0 24 5 34 14zM659 69c-5 1 -11 3 -19 6c4 8 4 10 4 21c-20 -14 -24 -16 -27 -16
c-14 0 -59 41 -78 67h-27c-18 -37 -27 -72 -27 -104c0 -57 22 -85 65 -85c12 0 29 4 51 13c-2 11 -3 34 -4 69c-6 3 -34 20 -83 51l5 2c77 -49 96 -58 121 -58c5 0 9 2 12 5c-5 0 -9 2 -12 6c5 0 11 1 19 3c-1 2 -6 6 -13 13c12 6 12 6 13 7zM931 439h1l-1 -22
c0 12 -1 14 -5 20zM759 488l-40 -36l-2 4l40 36zM855 379c0 -47 -34 -81 -80 -81c-44 0 -81 37 -81 81c0 41 40 80 81 80s80 -39 80 -80zM665 334c0 -1 -4 -10 -11 -26c4 9 4 13 4 30c-1 1 -11 8 -31 21c25 -11 38 -19 38 -25zM485 437l-60 15v5l60 -15v-5zM682 266
c0 -4 -14 -19 -43 -44c9 10 37 42 37 43c-6 3 -10 1 -71 -34c14 12 34 25 60 40c-4 4 -8 6 -11 6l23 -1c3 -3 5 -7 5 -10zM543 327c0 -46 -37 -83 -83 -83s-87 40 -87 83s41 84 85 84c47 0 85 -38 85 -84zM213 312h-5v18h5v-18zM820 434c-9 13 -24 19 -45 19
c-28 0 -52 -16 -71 -48zM852 379c0 18 -13 45 -27 51l-124 -33v-36c0 -19 23 -43 40 -43c28 0 59 6 94 17c2 0 17 37 17 44zM829 326c-22 -4 -51 -8 -86 -13c16 -5 27 -8 32 -8c17 0 35 7 54 21zM518 380c-21 16 -41 24 -60 24c-17 0 -33 -6 -50 -18c48 -4 85 -6 110 -6z
M540 327c0 13 -4 28 -13 45l-119 10c-15 0 -29 -26 -29 -55c0 -57 18 -67 118 -67c20 0 43 42 43 67zM489 255c-15 1 -41 3 -74 7c15 -8 30 -12 45 -12c10 0 20 2 29 5zM775 373c-2 -2 -4 -3 -7 -3c-2 0 -4 1 -6 3l4 12c6 -5 9 -9 9 -12zM458 311l-7 4v12c5 -2 9 -7 9 -12
c0 -1 -1 -3 -2 -4z" />
    <glyph glyph-name="four" unicode="4" horiz-adv-x="1482" 
d="M1503 222c0 -9 -1 -11 -22 -32c4 -10 6 -20 6 -29c0 -39 -35 -71 -77 -71c-19 0 -32 2 -39 7c-13 -10 -20 -27 -20 -51c-2 -62 -12 -76 -70 -81c-1 -6 -5 -16 -13 -29c-10 -4 -24 -12 -42 -25c-27 -41 -35 -46 -62 -46c-14 5 -52 19 -54 19l-25 -20
c-17 -13 -37 -19 -59 -19c-27 0 -35 5 -113 58c-3 0 -39 -10 -74 -19c-49 0 -63 8 -119 68c-91 102 -226 158 -349 158c-31 0 -80 -9 -145 -26s-114 -26 -145 -26c-32 0 -68 57 -68 100c0 17 9 48 27 93h227c98 0 284 77 318 134c3 15 10 36 21 63c-51 53 -51 54 -51 71
c0 25 8 31 75 73l10 79c8 26 27 39 57 39c12 0 28 -4 48 -13c21 21 35 32 42 32c2 0 8 -2 21 -7c23 43 58 71 89 71c24 0 48 -16 100 -70l42 6c22 0 61 -23 61 -32l26 6c21 0 42 -13 65 -39c39 13 60 20 64 20c52 0 79 -29 80 -86c11 -2 25 -7 44 -14c1 -7 8 -16 19 -28
c47 -7 60 -13 83 -37c15 -15 22 -27 22 -38v-259zM1497 242c0 3 0 3 -18 45l9 68c0 6 0 7 -9 18c-5 7 -8 12 -8 17c0 7 4 19 13 37s13 30 13 37c0 35 -45 81 -80 81c-4 0 -8 -1 -13 -2c-2 1 -8 3 -18 6c-18 34 -18 34 -64 43c0 71 -20 85 -67 85c-17 0 -39 -8 -64 -25
c-37 40 -45 45 -65 45c-9 0 -17 -3 -23 -9c7 -39 8 -49 8 -92c21 -22 31 -41 31 -57c0 -24 -5 -40 -15 -49c-5 86 -6 88 -26 108c2 12 3 24 3 37c0 59 -22 88 -65 88c-9 0 -27 -5 -54 -14c-20 48 -48 72 -85 72c-29 0 -36 -7 -94 -65c-2 0 -9 2 -19 7c-13 0 -25 -13 -36 -39
c-17 13 -35 19 -54 19c-43 0 -52 -24 -61 -118c-60 -31 -68 -36 -68 -66c0 -25 15 -47 45 -65c-11 -15 -17 -33 -17 -54s11 -32 33 -32c8 3 18 6 19 6c7 0 9 -2 31 -30c13 -2 31 -7 56 -16c-34 -34 -37 -43 -37 -66c-14 -23 -21 -39 -21 -49c0 -11 11 -25 33 -42
c-31 -20 -46 -37 -46 -52c0 -9 9 -13 39 -20c-8 -8 -12 -15 -12 -20c8 -4 17 -10 27 -18c0 -43 0 -43 7 -54c25 -13 50 -20 75 -20c5 0 9 2 13 7c4 4 8 6 13 6s9 -3 12 -9c4 -7 9 -10 14 -10c8 0 18 6 29 19c20 -13 37 -19 51 -19c35 0 36 4 49 46c17 6 33 15 48 28
c1 23 6 53 15 90c27 10 40 29 40 58c0 22 -3 27 -35 58c7 17 10 32 10 47c0 50 -15 58 -117 69v5c6 3 16 5 29 5c62 0 101 -35 101 -89c0 -11 -2 -24 -6 -37c20 -23 31 -43 31 -61c0 -7 -1 -10 -2 -11v2c-2 -9 -15 -27 -39 -56c-6 -7 -10 -22 -11 -43c-3 -43 -3 -43 -55 -74
c-21 -44 -25 -50 -55 -50c-62 8 -63 8 -92 8c-7 10 -8 11 -14 11c-1 0 -33 -4 -39 -6c-52 0 -80 15 -84 45c0 -9 -5 -19 -16 -29c11 -9 26 -24 44 -45c36 -43 56 -62 105 -62c19 0 45 9 80 26c31 -37 73 -64 104 -64c35 0 46 7 84 45c25 -17 44 -26 57 -26c30 0 56 25 56 53
c11 5 24 12 41 21c1 8 3 18 8 29c67 0 73 15 73 91c0 10 3 16 23 45c17 -9 33 -13 48 -13c43 0 64 23 64 70c0 11 -2 22 -5 35c17 9 25 23 25 40zM703 328c-4 0 -16 2 -39 7c-95 -27 -104 -29 -115 -55c27 -14 52 -21 74 -21h66c0 19 5 42 14 69zM697 171l-22 26
c-9 11 -17 16 -23 16c-23 0 -98 -27 -122 -40v-23c37 -19 79 -32 126 -40c7 21 21 41 41 61zM703 48c0 15 -13 33 -40 52c-124 27 -132 29 -147 64c21 21 47 36 78 45l69 12c9 7 14 17 14 30c-106 0 -121 0 -135 35c23 25 40 33 116 62c-35 17 -56 26 -64 26
c-5 0 -31 -14 -77 -42c-106 -65 -112 -67 -219 -81c-59 -8 -110 -12 -153 -12s-74 2 -93 5c33 -62 33 -103 33 -172c73 15 271 44 292 44c99 0 178 -28 304 -109c6 6 22 30 22 41zM77 146c-7 22 -19 53 -35 93c-16 -49 -23 -73 -23 -81c0 -31 17 -60 50 -87v-6
c2 0 4 19 8 81z" />
    <glyph glyph-name="five" unicode="5" horiz-adv-x="1061" 
d="M1120 7c0 -83 -57 -190 -112 -190c-25 0 -62 23 -235 128c-4 0 -11 -4 -21 -12c-57 -42 -92 -52 -155 -54c-93 0 -196 71 -269 186c-29 -14 -47 -19 -70 -20c-10 1 -44 2 -47 2c-12 0 -22 -1 -31 -5c-47 -59 -63 -68 -97 -68c-17 0 -75 41 -75 57c0 12 18 35 54 69
c-21 28 -21 28 -21 33c0 17 18 26 54 26l64 -12c19 0 101 35 104 48c15 51 22 86 22 105c0 7 -17 117 -42 220c-8 4 -20 11 -36 21v99c0 35 24 73 53 73c19 -4 24 -4 25 -4c63 42 80 54 139 54c4 -1 32 -4 33 -4c26 24 26 24 28 24c17 0 32 -21 59 -74c24 11 49 17 74 17
c113 0 163 -38 163 -124c0 -90 -54 -135 -195 -179c-25 -10 -37 -23 -37 -37h29c5 -11 8 -17 8 -19c0 -5 -3 -10 -8 -15c13 -13 24 -19 34 -19c20 0 117 40 134 50c28 17 40 48 51 107c4 22 12 33 25 33s21 -10 25 -29c5 -19 9 -29 12 -29c1 0 20 7 67 25c9 0 16 -7 21 -22
c4 -1 11 -5 20 -12c0 -11 -3 -24 -10 -38c3 -8 4 -15 4 -19c0 -11 -41 -43 -62 -48c-52 -10 -63 -14 -96 -57c-15 -19 -27 -31 -34 -38l10 -14c5 -5 9 -8 12 -8l44 8c20 0 45 -10 76 -29c43 53 60 70 77 70c4 0 6 -1 7 -2l4 -5c43 0 46 0 61 -14c12 -45 18 -69 18 -72
l-16 -90c0 -5 4 -11 12 -19c33 -9 46 -32 46 -74zM516 749c-9 17 -19 26 -28 26s-16 -5 -21 -15c19 -5 36 -9 49 -11zM521 731c-13 13 -24 19 -33 19c-14 0 -41 -23 -45 -36c19 4 46 9 78 17zM533 706c-4 13 -5 16 -5 19h-14c-2 -1 -3 -1 -24 -20c-5 5 -10 8 -15 8
c-14 -4 -21 -5 -24 -5v-15h42c5 1 19 5 40 13zM963 449c0 3 -3 7 -10 12c-17 -7 -43 -16 -77 -26c14 9 35 18 62 27l-5 24c-57 -21 -69 -25 -74 -25c-3 0 -6 1 -8 3c-7 27 -14 45 -22 55h-14c-5 -7 -12 -31 -22 -71c-14 -53 -40 -75 -109 -100c-27 -10 -49 -16 -64 -17
c38 -17 86 -41 143 -72c65 80 69 83 132 96c17 6 38 20 63 41v16h-27l-26 -2c55 18 58 19 58 39zM438 708c-8 15 -21 22 -39 22c-35 0 -47 -19 -47 -54c15 4 44 15 86 32zM446 670l-5 30c-29 -20 -29 -20 -32 -20c-2 0 -5 1 -12 4c-13 0 -27 -7 -42 -22
c15 -18 29 -27 44 -27c24 0 40 12 47 35zM740 513c-47 19 -71 54 -71 105c0 39 3 45 29 90l-82 13c-15 0 -42 -6 -80 -19c-42 -13 -53 -14 -81 -14c0 -46 -32 -58 -56 -58c-35 0 -52 17 -52 52c0 32 22 56 52 56c34 -12 34 -12 35 -12c6 0 16 9 29 27c-1 0 -26 3 -39 6
c-32 0 -61 -8 -88 -23c-4 -4 -45 -31 -51 -31c-1 0 -6 0 -25 4c-43 0 -46 -40 -49 -164c8 -8 43 -22 56 -22c31 0 47 16 47 48c0 16 -4 32 -12 49c1 2 3 3 4 3c3 0 16 -33 16 -54c0 -33 -26 -51 -74 -51c17 -62 29 -126 38 -192c2 -3 5 -5 9 -8l85 -6c65 0 129 14 193 43
c6 5 9 11 9 18l-9 10c-20 -9 -68 -29 -75 -29s-14 5 -19 14c21 21 66 43 133 67c63 22 105 48 128 78zM1116 9c0 30 -12 51 -37 63c3 -12 5 -23 5 -33c0 -7 -1 -14 -3 -20c-10 58 -15 74 -42 74c-20 0 -32 -9 -35 -28c17 -6 33 -25 33 -40c0 -5 -1 -9 -2 -10
c-8 30 -18 45 -31 45c-26 0 -59 -47 -61 -82l-1 6c0 23 10 45 29 66c-12 15 -44 39 -64 39c-3 0 -20 -17 -50 -52c-37 -43 -64 -72 -80 -86l116 -72c64 -39 103 -58 117 -58c48 0 106 115 106 188zM624 273c0 1 -4 14 -5 14c-7 3 -14 5 -22 5c-13 0 -22 -8 -27 -24
c9 -9 18 -13 27 -13c13 0 27 10 27 18zM1070 221c-10 9 -16 13 -18 13c-9 0 -19 -6 -29 -17l-3 6c13 9 27 15 42 20c-9 19 -17 28 -23 28h-38c-5 -15 -13 -26 -24 -33l-2 6l16 16v15h-15c-24 -20 -44 -43 -59 -68c12 -12 22 -24 29 -37l-5 -2c-27 44 -63 66 -108 66
c-56 0 -80 -16 -140 -63c12 27 41 47 88 60c-29 33 -173 106 -196 106c-10 0 -19 -8 -27 -23c17 -14 22 -18 27 -18l14 4c19 0 29 -9 29 -27c0 -15 -10 -23 -31 -23s-32 7 -32 21c0 7 3 14 9 23c-7 4 -14 10 -22 18c-33 -30 -92 -45 -176 -45c-35 0 -65 1 -90 4
c-14 -93 -15 -93 -127 -132l-64 16c-30 0 -45 -7 -45 -22c0 -6 2 -9 20 -33c-39 -39 -58 -62 -58 -69c0 -5 4 -9 15 -16c11 12 27 31 49 58c13 -18 28 -32 44 -43c-21 -4 -49 -27 -53 -48h42c7 0 30 22 68 65c122 4 142 7 209 79c2 -1 3 -3 3 -4c-5 -7 -29 -31 -54 -55
c103 -160 211 -184 264 -184c99 0 201 73 308 219c58 -43 63 -46 68 -46c4 0 13 8 26 23s27 23 40 23c2 0 2 0 16 -4c10 40 13 68 13 123zM103 33l-26 27c-12 -6 -41 -38 -44 -52c9 -9 17 -14 23 -14c5 0 21 13 47 39zM154 104l-39 -44l-4 3l38 43z" />
    <glyph glyph-name="six" unicode="6" horiz-adv-x="629" 
d="M674 689l-56 11v-48c29 -12 37 -16 37 -30c0 -9 -11 -16 -33 -23c9 -8 13 -15 13 -22s-5 -15 -16 -26c9 -13 13 -25 13 -34c0 -28 -10 -31 -50 -34c-21 -35 -32 -59 -32 -71l20 -60c-9 -28 -13 -41 -13 -42c0 -11 4 -29 11 -52c8 -23 12 -41 12 -52v-102
c-3 -7 -7 -8 -50 -15c-119 -101 -120 -102 -120 -112c0 -8 26 -37 33 -37c19 2 30 3 39 3c39 0 59 -7 59 -22c0 -20 -36 -52 -78 -71c39 21 64 43 74 66l-2 11c-39 -49 -55 -55 -180 -97c4 -7 10 -10 18 -10c11 0 40 9 86 28c-48 -25 -75 -32 -100 -32c-6 11 -15 28 -28 50
c-9 9 -18 21 -27 38c9 -24 22 -36 38 -36c24 0 88 39 88 67c0 5 -8 19 -25 41c-43 -58 -54 -60 -104 -68c-1 1 -8 9 -20 25c-79 7 -127 10 -144 10c-7 0 -19 -9 -35 -27c-15 -19 -30 -28 -43 -28c-17 0 -26 10 -26 29c0 7 3 22 8 47c-5 -25 -7 -35 -7 -42
c0 -13 4 -24 13 -31c0 2 2 3 4 6c0 32 16 91 50 178l-11 12c-21 -47 -37 -84 -46 -113l41 114c-31 44 -31 44 -44 107c-5 3 -12 9 -21 16c0 24 9 45 45 102c-13 9 -13 10 -13 13c0 30 19 77 58 141c4 28 83 137 87 137c9 0 29 -10 60 -29c0 -19 0 -22 -19 -44
c3 -5 8 -8 16 -8c24 0 38 17 122 159v22c4 19 7 24 17 29c13 6 21 11 24 16c4 0 10 1 17 3c38 28 48 32 79 32c15 0 55 -10 66 -22c42 -51 42 -52 95 -73zM651 615v15c-9 4 -20 10 -35 19c0 21 -1 37 -8 53l-109 19c0 -27 -6 -32 -24 -32c-19 13 -20 13 -24 13
c-11 0 -17 -5 -17 -14c4 -17 4 -18 4 -19c0 -4 -1 -7 -4 -9c-40 9 -41 9 -51 19c-55 -73 -83 -117 -83 -132s66 -68 92 -78c65 -26 116 -44 154 -53c3 6 14 31 33 75c15 -4 16 -4 17 -4c22 0 33 10 33 31c0 11 -6 22 -17 33c13 13 20 21 20 26c0 6 0 6 -33 11
c-17 0 -33 -3 -50 -10l-2 5c24 8 43 12 56 12c9 -2 15 -3 19 -3l-4 16c5 -3 7 -4 11 -4c8 0 15 4 22 11zM329 504c-21 23 -33 35 -36 35c-4 0 -6 -2 -26 -14c16 -7 37 -14 62 -21zM576 133c0 84 -3 98 -26 175c0 3 6 22 13 44c0 19 -12 55 -20 59c-136 43 -150 48 -178 66
c13 -26 19 -44 19 -53c0 -14 -5 -32 -16 -53c-26 -51 -34 -69 -45 -147c12 -3 38 -25 38 -45c0 -5 -2 -9 -5 -13c9 -10 16 -20 19 -29c32 0 32 -3 32 -24l134 -20c35 0 35 2 35 40zM358 403c0 60 -21 76 -113 87c-35 -51 -36 -65 -36 -104h53c25 0 33 -2 92 -25zM378 424
c0 50 -33 73 -139 99c-31 -58 -35 -67 -92 -218c20 2 25 3 48 3c7 111 13 145 48 189c109 -16 120 -18 120 -127c10 20 15 38 15 54zM355 182c0 10 -23 34 -39 40c9 50 20 93 32 120v11c-37 26 -53 26 -142 26l-7 -97c0 -85 10 -119 51 -143c0 7 2 10 5 10
c0 -15 16 -19 35 -19c-2 5 -5 10 -10 17c2 2 2 2 3 2c4 -5 16 -20 18 -23c14 1 19 8 19 25c0 15 3 25 10 30c3 -7 7 -10 10 -10c7 0 15 5 15 11zM365 144c-3 9 -8 13 -35 21l-4 -16l34 -20zM211 172c-13 36 -16 68 -16 129h-51c-8 -8 -14 -12 -19 -12c-5 2 -22 10 -56 22
c-31 -53 -46 -85 -46 -97c6 -7 23 -11 50 -11c58 -10 86 -19 122 -35zM218 158c0 5 -4 7 -11 7c-11 0 -18 -10 -21 -29h19c5 7 11 18 13 22zM355 -63v21c-1 3 -3 19 -6 49c0 48 -4 72 -12 73l-150 13h-60v-143zM348 -74c-13 1 -33 3 -58 7c7 -13 14 -19 21 -19s19 4 37 12z
M609 657c0 -20 -10 -30 -31 -30s-31 10 -31 30c0 21 10 32 29 32c18 0 33 -15 33 -32zM460 689l-2 -4l-15 7l1 5zM477 311c-2 -4 -5 -6 -10 -6c-8 0 -39 11 -43 15c16 -6 34 -9 53 -9zM342 -46l-4 -5c-83 3 -147 5 -194 5v129l188 -10c7 -31 10 -61 10 -89v-30zM606 658
c0 15 -18 28 -30 28s-26 -18 -26 -28s14 -28 26 -28s30 13 30 28zM590 640l-10 -4v5l8 4z" />
    <glyph glyph-name="seven" unicode="7" horiz-adv-x="647" 
d="M693 -196c-3 13 -6 33 -9 59c-2 130 -30 246 -83 348c-11 -44 -19 -55 -34 -71c26 -63 27 -66 27 -79c-7 -22 -13 -43 -13 -45c18 -60 27 -100 27 -119c0 -39 -9 -70 -28 -94c17 35 25 66 25 93c0 32 -7 67 -29 117c0 3 5 20 13 48c0 13 -15 53 -45 120c2 0 4 -1 6 -3
c11 11 28 51 28 67s-54 58 -65 63c-9 -50 -55 -129 -77 -132c-2 0 -4 3 -8 10c-21 -20 -41 -38 -62 -54c-70 45 -75 49 -78 49l-6 -3c-19 0 -60 50 -84 133c-65 -57 -77 -70 -90 -91c11 -9 27 -23 50 -44c2 3 5 6 9 10c-17 -52 -26 -89 -26 -112l10 -54
c-3 0 -35 -100 -35 -159c0 -23 4 -43 11 -58c-11 7 -16 25 -16 56c0 29 7 66 21 113l14 47c-10 33 -10 34 -10 36c3 15 4 36 4 65c-4 17 -26 33 -65 48c-25 -43 -53 -166 -53 -234v-84c0 -14 1 -30 4 -47c-5 12 -7 24 -7 37v104c0 85 53 243 63 261c18 10 19 11 41 43
c7 11 23 26 48 45c19 15 29 25 29 31c-4 0 -15 56 -27 130c-26 1 -33 4 -34 16c0 5 1 17 3 36c-1 2 -3 5 -6 8c0 -1 0 -2 -1 -2c-1 56 -1 59 -11 86c17 57 18 58 30 68c18 15 30 29 45 60c3 25 7 28 42 46c17 9 29 14 35 14l9 -2c0 5 21 7 70 8c50 0 65 -13 74 -38
c28 -18 45 -39 53 -66c19 -15 24 -27 24 -87c0 -1 1 -6 5 -17c0 -3 -6 -12 -17 -29c12 -12 13 -16 15 -30c0 -2 -1 -5 -9 -18v-184c49 -32 65 -46 74 -62c74 -116 92 -194 119 -457zM505 530c0 3 -6 9 -18 18c3 -5 6 -18 11 -37c5 9 7 15 7 19zM503 421c0 53 0 53 -27 140
c0 5 2 17 5 40v76c-10 41 -41 74 -55 74c-11 0 -16 -3 -44 -19c-1 0 -11 3 -21 6c-1 0 -5 -2 -23 -11c-3 0 -10 4 -25 11l-24 -8c-3 0 -10 1 -26 5c-1 0 -11 -4 -21 -8c-3 0 -8 1 -15 3c-25 0 -51 -39 -51 -57c14 -11 15 -13 15 -31c2 -11 2 -12 -6 -20c5 -9 7 -11 7 -20
l-4 -6v-24c-2 -4 -5 -9 -7 -16c6 -29 6 -30 6 -32c0 -11 -5 -16 -14 -16c-3 0 -9 2 -18 5c-9 -13 -14 -24 -14 -35c0 -4 1 -7 3 -13c8 -3 19 -7 34 -13c6 -53 10 -68 21 -108c12 -45 27 -53 137 -107c15 -11 24 -25 27 -40c6 16 18 30 35 41c104 64 105 67 105 183zM600 215
c0 5 -6 13 -18 25c-3 -21 -6 -26 -28 -68c0 -5 4 -14 12 -26l14 14c13 27 20 46 20 55zM508 308c0 3 -2 6 -7 11c-17 -22 -45 -46 -84 -73c-31 -21 -47 -39 -49 -54h17c9 0 28 12 28 21c-3 1 -6 4 -10 7c13 0 18 -6 36 -36c34 28 69 89 69 124zM359 192c-2 21 -25 42 -70 63
c-48 23 -76 45 -85 66c5 -57 31 -102 79 -137c3 13 29 35 44 41c-6 -4 -13 -12 -22 -21c2 -2 3 -4 3 -6c8 -4 13 -6 15 -6h36zM427 195c0 5 -4 9 -13 13c-6 -15 -26 -22 -59 -22c-27 0 -28 0 -57 17c-6 -11 -9 -18 -9 -19c44 -29 69 -44 76 -44s62 47 62 55zM157 167
c0 12 -49 44 -56 44c-13 0 -23 -12 -28 -37c44 -21 63 -34 69 -50c10 25 15 39 15 43zM338 563c0 -24 -19 -42 -43 -42c-25 0 -44 18 -44 42c0 22 22 42 45 42c24 0 42 -18 42 -42zM473 570c0 -22 -17 -36 -52 -42c4 -3 10 -10 10 -16c-4 -20 -4 -23 -4 -24
c0 -5 12 -14 35 -26v-15c-2 -6 -2 -6 -38 -11c5 -10 5 -12 5 -21c8 -10 8 -11 8 -14l-7 -25c0 -1 5 -17 10 -27c0 -25 -19 -38 -56 -38c-9 0 -22 3 -41 8c16 -2 30 -3 42 -3c29 0 53 14 53 31c0 3 -4 12 -13 27c4 16 6 25 6 28c0 5 -14 11 -31 11s-42 -5 -76 -14
c33 13 58 20 77 20c9 0 16 -1 19 -3c3 3 4 5 4 8c0 13 -11 19 -32 19c-16 -4 -57 -11 -61 -11c-12 2 -51 6 -52 6c-2 6 -3 9 -3 12s10 17 30 41c0 8 3 13 11 19c-4 -4 -6 -9 -6 -16c0 -12 7 -18 20 -18c6 0 13 4 21 13c15 -7 26 -11 34 -11c27 0 41 10 41 29
c0 5 -10 16 -29 32c-9 8 -14 18 -14 31c0 23 20 41 44 41c22 0 45 -21 45 -41zM170 505c-2 -1 -5 -4 -8 -7c2 -7 3 -12 3 -17c0 -3 -1 -6 -2 -8v17l-6 5c-5 -3 -10 -5 -11 -5c3 5 8 10 15 15h9zM454 595c-10 7 -19 10 -26 10s-16 -3 -25 -10h51zM467 558v22
c-5 8 -11 12 -20 12h-9c0 -6 -1 -10 -2 -11h-5c-7 0 -10 3 -10 10c-26 0 -28 -1 -32 -11v-22h78zM459 550c-19 5 -25 6 -31 6h-33c7 -14 18 -21 33 -21c10 0 20 5 31 15zM322 590c-10 7 -19 10 -27 10c-16 0 -33 -12 -34 -24c15 6 36 11 61 14zM335 560c-1 6 -3 14 -6 23
h-21c0 -7 -3 -10 -9 -10c-7 0 -11 3 -11 8c-9 -4 -20 -10 -34 -17c4 -11 8 -19 12 -24c9 7 32 13 69 20zM332 553c-23 -3 -45 -8 -64 -17c9 -6 18 -9 27 -9c17 0 30 9 37 26z" />
    <glyph glyph-name="eight" unicode="8" horiz-adv-x="640" 
d="M654 302c0 -107 -49 -161 -181 -200c80 -69 104 -111 125 -172c3 -4 7 -10 11 -18v-39c0 -5 3 -20 10 -46l-5 -23c0 11 -3 34 -9 68l-6 6c-8 -5 -18 -7 -31 -7c-1 -30 -11 -52 -32 -67h-313c0 3 2 17 3 21c0 25 -52 57 -125 67c-8 -10 -9 -13 -31 -88c8 62 9 66 18 82
c-2 3 -5 7 -8 13l-13 -8c-9 -7 -13 -17 -13 -20c3 -8 8 -29 9 -37c0 -6 -4 -16 -11 -30c3 11 4 20 4 26c0 4 0 4 -10 34c0 12 5 17 27 41c2 81 28 148 79 201c0 2 -2 4 -6 7c-102 40 -132 73 -132 145c0 51 20 127 59 229c-5 10 -5 10 -5 29c6 7 14 17 23 32
c66 154 150 231 255 231c62 0 141 -33 175 -72c27 -31 49 -74 66 -127c6 -6 13 -16 22 -29v-24c23 -44 45 -172 45 -225zM572 470c-4 19 -28 40 -47 40c-14 0 -36 -14 -41 -27c14 0 43 -4 88 -13zM579 585c-40 121 -122 187 -231 187c-98 0 -185 -75 -241 -208
c89 51 180 77 273 77c79 0 123 -9 199 -56zM594 363c-2 4 -6 26 -13 62c-10 -31 -29 -46 -58 -46c-32 0 -57 33 -57 69c0 38 26 69 59 69c10 0 23 -6 40 -17c0 42 -6 53 -33 53c-48 0 -94 -45 -94 -92c0 -13 9 -30 27 -52c22 -26 23 -36 23 -64c21 -5 36 -8 46 -8
c28 0 48 9 60 26zM579 443c0 5 -2 10 -5 16c-44 18 -55 19 -96 19c-5 -17 -8 -27 -8 -30c0 -34 24 -61 55 -61c29 0 54 26 54 56zM541 562c-63 25 -119 37 -168 37c-55 0 -132 -16 -142 -29c-4 -5 -5 -8 -11 -42c27 19 52 28 75 28c52 0 99 -34 112 -81h27c3 36 61 90 96 90
c4 0 8 -1 11 -3zM604 539v12c-56 55 -131 83 -226 83c-110 0 -207 -33 -292 -99c-7 -6 -11 -18 -11 -35c99 71 199 106 298 106c85 0 162 -22 231 -67zM410 438c0 60 -52 111 -113 111c-30 0 -78 -20 -84 -36c-17 -43 -26 -75 -26 -96c0 -49 51 -91 110 -91
c64 0 113 49 113 112zM601 291c0 9 -3 31 -9 64c-17 -17 -36 -25 -57 -25c-5 0 -20 4 -49 11c-3 0 -7 -3 -46 -39l-2 5c31 21 46 40 46 58c0 8 -9 23 -27 46c-15 19 -26 38 -26 56h-21c3 -11 4 -21 4 -31c0 -64 -53 -117 -117 -117c-45 0 -95 34 -113 78
c-9 -57 -14 -88 -14 -94c0 -87 37 -142 110 -165c35 -11 36 -11 42 -15c-15 -15 -15 -15 -15 -17l5 -27h-15c22 -33 47 -49 76 -49c21 0 38 11 53 33c-6 21 -9 40 -9 56c163 56 182 77 184 172zM544 -48v52c0 29 -26 52 -86 93c-11 0 -21 -4 -30 -11c34 -8 78 -47 87 -76
c0 -45 0 -46 29 -58zM608 -96c0 5 -3 11 -9 16c-9 -3 -21 -4 -37 -4c6 -15 7 -19 7 -38h19c13 0 20 9 20 26zM463 64c-11 5 -20 8 -28 8c-11 -31 -32 -46 -64 -46c-21 0 -23 0 -88 53c-7 0 -15 -5 -22 -16c34 -39 72 -58 114 -58c38 0 74 27 88 59zM293 -66
c0 45 -12 87 -36 127c-10 -6 -24 -12 -41 -19c28 -23 42 -58 42 -104c0 -74 -1 -76 -24 -120c39 26 59 65 59 116zM268 85c-24 5 -60 13 -108 22c-48 -55 -74 -115 -78 -180c19 24 46 56 83 95c26 15 60 36 103 63zM247 -143c0 39 -93 81 -137 81c-17 0 -25 -10 -25 -30
c0 -5 2 -10 5 -13c71 0 102 -12 141 -63c11 10 16 18 16 25zM546 422l-8 4v13c7 -2 9 -6 10 -12c0 -2 -1 -4 -2 -5zM364 440c0 -45 -26 -75 -64 -75c-32 0 -54 25 -66 75l-10 -11c6 15 7 17 7 21c-4 -2 -9 -5 -15 -10c6 4 14 12 23 23c18 36 38 54 61 54c38 0 64 -32 64 -77
zM431 231c-1 -2 -6 -10 -13 -20c0 -24 -5 -44 -29 -44c-15 0 -25 6 -30 18c-6 15 -11 24 -16 27c18 4 23 8 58 33h26c4 -12 4 -12 4 -14zM339 490c-13 13 -26 20 -39 20c-25 0 -42 -15 -52 -45c28 17 57 25 91 25zM360 441c0 29 -8 44 -24 44c-20 0 -51 -9 -92 -28
c0 -55 21 -88 56 -88c31 0 60 35 60 72zM346 435c0 -6 -4 -9 -13 -9v13c6 0 10 -1 13 -4z" />
    <glyph glyph-name="nine" unicode="9" horiz-adv-x="796" 
d="M853 -196c-73 237 -116 360 -277 456l12 -131v-38c-14 -2 -31 -9 -51 -21c8 -7 19 -20 33 -37c-5 -5 -28 -26 -68 -61c-72 -62 -75 -70 -78 -168c2 27 7 68 14 123c-109 78 -115 86 -115 105c0 20 26 38 34 42c-5 4 -24 12 -55 25c0 36 -2 87 -7 153
c-114 -73 -154 -105 -192 -218c-5 -19 -28 -96 -70 -230c93 347 100 352 265 452c5 8 13 21 25 38c-33 35 -36 44 -40 144c0 4 0 4 -14 10c7 40 7 41 7 47c0 2 -6 19 -19 55c0 2 2 8 14 39c4 103 70 189 168 189c91 0 152 -66 152 -164v-40c-9 -19 -14 -36 -14 -50
c0 -7 4 -41 15 -121c0 -27 -5 -36 -41 -101c0 -13 24 -36 73 -70c116 -81 167 -191 229 -428zM696 -193l-12 75c-5 29 -11 51 -18 64h-70c2 18 7 41 16 71c6 -11 9 -23 9 -36c0 -9 -1 -18 -4 -28c4 -4 7 -6 10 -6c19 2 30 3 39 3c0 16 -4 39 -17 93zM235 -7
c0 -50 -6 -77 -41 -189c25 94 38 159 38 194c0 15 -1 30 -3 45c4 -16 6 -33 6 -50zM588 594v50c0 31 -44 95 -74 110c-28 13 -53 20 -75 20c-85 0 -150 -73 -162 -184c43 39 97 59 160 59c66 0 116 -18 151 -55zM573 594c-9 24 -89 51 -123 51c-86 0 -161 -35 -181 -84
c40 45 110 77 170 77c37 0 81 -15 134 -44zM573 496c-5 36 -7 66 -8 89c-15 23 -79 46 -128 46c-34 0 -91 -17 -105 -31c-1 -43 -3 -49 -14 -58c-20 10 -31 15 -33 15c-11 0 -17 -7 -17 -20c0 -4 12 -29 16 -37c0 -30 2 -31 58 -35c23 0 46 7 68 20c23 14 42 21 57 21
c11 0 25 -4 40 -11s26 -11 33 -11c12 0 23 4 33 12zM323 558v36c-18 -9 -31 -20 -40 -32c5 0 15 -4 31 -12zM584 421c0 3 -1 5 -3 5c-1 0 -3 -1 -4 -2c3 30 4 34 4 43s-2 16 -5 20c-22 -7 -34 -11 -36 -11c-3 1 -15 5 -71 26c-13 0 -32 -7 -57 -22c-24 -15 -47 -22 -70 -22
c-29 0 -49 6 -61 18c-6 -6 -9 -12 -9 -18c0 -4 2 -7 7 -10l10 -7c-2 -14 -3 -27 -3 -38c0 -60 30 -111 79 -135c46 -23 76 -34 91 -34c23 0 47 8 72 23c9 31 23 60 40 87c11 17 16 42 16 77zM529 244c-30 -10 -52 -16 -66 -19c8 -13 20 -32 35 -57c19 19 22 28 31 76z
M584 95c0 58 -3 97 -12 156c-1 8 -10 23 -26 45c-5 -20 -11 -50 -16 -90c-9 -100 -10 -100 -81 -281c31 25 70 61 117 108l-37 37c7 7 28 19 55 25zM430 232c-19 8 -47 22 -84 42c0 -26 1 -36 12 -75c21 -19 35 -28 43 -28c4 0 6 4 29 61zM521 186c-10 -15 -18 -23 -23 -26
c-9 10 -15 17 -18 22c-5 -5 -10 -8 -13 -8v-100c0 -9 5 -25 14 -50c17 36 31 90 40 162zM434 153c0 8 -6 18 -17 29c-3 -6 -8 -12 -15 -18c-10 5 -24 12 -41 22c0 -15 20 -112 46 -140c18 55 27 90 27 107zM448 -51c-89 179 -93 185 -105 309c-3 16 -9 26 -18 31
c-20 -32 -20 -32 -24 -79c0 -9 1 -19 9 -107c45 -23 53 -28 54 -29c-25 -21 -37 -35 -37 -42c0 -14 20 -30 117 -100c4 15 4 16 4 17zM566 533c0 -16 -23 -38 -40 -38c-19 0 -41 20 -41 38c0 22 20 39 41 39c20 0 40 -19 40 -39zM391 606l-24 -28l-4 4l23 28zM434 537
c0 -18 -22 -39 -41 -39c-18 0 -40 21 -40 39c0 21 19 39 40 39c20 0 41 -18 41 -39zM515 342c0 -2 -3 -7 -20 -42c-1 2 -2 4 -2 6c2 4 17 34 17 36c0 3 0 7 -2 13c5 -5 7 -9 7 -13zM303 525l-5 -4l-16 23l5 3zM477 410c-41 -57 -41 -57 -41 -77c4 5 10 12 19 22
c-8 -17 -17 -33 -28 -48c8 93 9 96 17 103c-7 -28 -8 -38 -8 -48c13 17 26 33 41 48zM559 535c0 16 -16 33 -32 33c-23 0 -34 -12 -34 -35c0 -17 15 -31 33 -31c22 0 33 11 33 33zM426 537c0 19 -15 35 -33 35s-33 -15 -33 -33c0 -22 12 -33 35 -33c21 0 31 10 31 31z
M398 545l-5 -10l-5 2l5 9zM526 539c0 3 2 5 5 5s5 -2 5 -5s-2 -5 -5 -5s-5 2 -5 5zM387 539c0 3 2 5 5 5s5 -2 5 -5s-2 -5 -5 -5s-5 2 -5 5z" />
    <glyph glyph-name="colon" unicode=":" horiz-adv-x="295" 
d="M285 314l-43 -64l-13 10l43 63zM242 250l-31 -68l-12 2l30 76zM81 298l-13 -8l-23 34l13 9zM132 170l-14 -2l-50 122l13 8zM19 73c0 51 29 94 73 94c5 0 11 -1 18 -2c5 9 8 19 8 29c0 8 -2 16 -6 25c14 -35 18 -42 30 -54c54 18 56 19 66 30l68 -40c17 -12 25 -34 25 -67
c0 -95 -42 -142 -127 -142c-111 0 -155 36 -155 127zM214 85c-8 21 -34 32 -78 32c-31 0 -54 -7 -68 -21v-84c16 -14 31 -21 45 -21h79c15 43 22 75 22 94zM285 719l-43 -64l-13 10l43 63zM242 655l-31 -68l-12 2l30 76zM81 703l-13 -8l-23 34l13 9zM132 575l-14 -2l-50 122
l13 8zM19 478c0 51 29 94 73 94c5 0 11 -1 18 -2c5 9 8 19 8 29c0 8 -2 16 -6 25c14 -35 18 -42 30 -54c54 18 56 19 66 30l68 -40c17 -12 25 -34 25 -67c0 -95 -42 -142 -127 -142c-111 0 -155 36 -155 127zM214 490c-8 21 -34 32 -78 32c-31 0 -54 -7 -68 -21v-84
c16 -14 31 -21 45 -21h79c15 43 22 75 22 94z" />
    <glyph glyph-name="semicolon" unicode=";" horiz-adv-x="294" 
d="M65 583c37 7 74 11 112 11s75 -3 111 -10c8 -29 12 -64 12 -105c0 -32 -2 -64 -7 -97c-43 -8 -83 -12 -118 -12c-26 0 -59 3 -99 8c-11 40 -17 79 -17 118c0 19 2 48 6 87zM51 251c43 7 79 10 108 10s71 -4 127 -12c5 -49 8 -88 8 -119c0 -187 -87 -294 -261 -321
c15 105 22 207 22 304c0 36 -1 82 -4 138z" />
    <glyph glyph-name="less" unicode="&#x3c;" horiz-adv-x="493" 
d="M501 668v-153l-302 -154l301 -154v-152l-464 242v129z" />
    <glyph glyph-name="equal" unicode="=" horiz-adv-x="514" 
d="M21 486c107 -1 272 -2 495 -3v-114c-95 3 -172 4 -232 4c-87 0 -173 -2 -260 -5c-4 32 -6 57 -6 76c0 10 1 24 3 42zM21 312c119 7 143 7 495 7v-120c-48 2 -94 3 -137 3c-130 0 -248 -2 -355 -5c-3 36 -3 45 -3 115z" />
    <glyph glyph-name="greater" unicode="&#x3e;" horiz-adv-x="467" 
d="M36 55v153l301 154l-301 154v152l464 -242v-130z" />
    <glyph glyph-name="question" unicode="?" horiz-adv-x="424" 
d="M133 115l3 75c10 -2 18 -3 23 -3c39 0 58 14 58 42c0 23 -14 34 -41 34c-17 0 -39 -7 -68 -20c-49 82 -85 177 -107 285c55 33 116 50 181 50c148 0 256 -98 256 -233c0 -142 -102 -230 -305 -230zM84 66c49 18 99 34 151 47c15 -33 28 -68 40 -104
c-35 -15 -85 -32 -150 -50c-17 38 -31 74 -41 107z" />
    <glyph glyph-name="at" unicode="@" horiz-adv-x="758" 
d="M605 201c42 35 63 84 63 147c0 129 -89 215 -222 215c-132 0 -248 -88 -248 -255c0 -156 99 -250 264 -250c22 0 46 2 71 6c4 -19 7 -43 8 -70c-45 -19 -91 -28 -136 -28c-221 0 -390 167 -390 385c0 215 170 381 391 381c209 0 373 -152 373 -346
c0 -103 -43 -182 -128 -237c-31 -19 -31 -20 -85 -22c-28 0 -50 2 -66 5c-2 14 -3 25 -3 34c-19 -36 -49 -54 -88 -54c-88 0 -156 80 -156 180c0 102 69 177 163 177c13 0 30 -3 53 -10l34 -10c27 4 30 4 110 6c-6 -60 -8 -123 -8 -254zM499 381c-12 7 -23 11 -33 11
c-21 0 -31 -10 -31 -30c0 -21 13 -32 38 -32c10 0 19 2 26 5v46z" />
    <glyph glyph-name="A" unicode="A" horiz-adv-x="724" 
d="M747 110c0 -125 -21 -149 -237 -246c-13 87 -34 159 -63 215c-47 -12 -90 -28 -128 -48c-2 -60 -8 -111 -18 -154h-91c-12 0 -13 0 -146 40c46 350 95 623 148 819c114 -9 228 -13 342 -13c144 -285 193 -442 193 -613zM416 295v72l-59 14v-86h59z" />
    <glyph glyph-name="B" unicode="B" horiz-adv-x="692" 
d="M706 18c0 -164 -147 -202 -333 -202c-42 0 -198 20 -268 35c-60 141 -89 423 -89 438v382c145 81 282 121 413 121c175 0 269 -95 269 -274c0 -133 -45 -225 -135 -278c95 -59 143 -133 143 -222zM484 407c0 25 -47 60 -79 60c-19 0 -43 -13 -70 -38l-9 -41
c63 -40 66 -40 79 -40c34 0 79 33 79 59zM476 90c0 30 -31 59 -63 59c-37 0 -64 -27 -64 -63c0 -34 30 -64 64 -64c29 0 63 37 63 68z" />
    <glyph glyph-name="C" unicode="C" horiz-adv-x="804" 
d="M830 35c0 -55 -5 -86 -16 -94c-49 -36 -111 -62 -188 -78c-10 -2 -45 -3 -106 -3c-281 0 -510 193 -510 445c0 255 227 455 510 455c176 0 310 -69 310 -160c0 -102 -21 -180 -50 -180c-16 5 -71 24 -106 36l-109 14c-187 0 -215 -103 -215 -160c0 -107 72 -160 215 -160
c82 0 82 0 220 50c30 -12 45 -67 45 -165z" />
    <glyph glyph-name="D" unicode="D" horiz-adv-x="838" 
d="M860 300c0 -254 -200 -450 -460 -450c-48 0 -161 24 -339 72l-23 697c5 63 179 131 327 131c239 0 495 -204 495 -450zM570 300c0 87 -46 150 -110 150c-76 0 -110 -85 -110 -150c0 -88 45 -150 110 -150c60 0 110 70 110 150z" />
    <glyph glyph-name="E" unicode="E" horiz-adv-x="593" 
d="M634 -17c-3 -41 -8 -110 -8 -111c-112 -11 -193 -16 -242 -16c-25 0 -124 8 -297 24c-3 2 -8 7 -15 14c-9 63 -20 169 -33 318l-18 212v205c121 61 260 92 533 121c3 -3 8 -8 14 -16l31 -205c0 -21 -15 -48 -32 -51c-152 -21 -200 -32 -250 -62l6 -47c2 -13 9 -20 22 -20
c9 0 25 5 49 14c25 9 41 14 50 14c15 0 25 -5 32 -16c30 -76 45 -119 45 -128c0 -6 -5 -18 -15 -36l-76 -20c-35 -9 -64 -22 -85 -37v-25c45 -13 93 -19 144 -19c9 0 34 2 81 7c48 0 64 -30 64 -120z" />
    <glyph glyph-name="F" unicode="F" horiz-adv-x="593" 
d="M610 480c-59 -15 -147 -40 -263 -75c0 -38 5 -65 15 -80c19 5 59 13 119 25c17 -34 37 -87 61 -158l-150 -55c-24 -10 -36 -19 -36 -28c25 -85 25 -87 25 -100v-121h-252c-43 154 -78 324 -78 383v340c96 50 214 75 454 112h78l27 -164v-79z" />
    <glyph glyph-name="G" unicode="G" horiz-adv-x="832" 
d="M843 430c-18 -25 -20 -28 -36 -28s-35 7 -56 21c-63 19 -120 28 -173 28c-145 0 -217 -58 -217 -175c0 -108 62 -175 163 -175c53 2 92 18 92 87c-21 7 -65 10 -131 10c-4 8 -5 13 -5 48l3 58c53 6 109 9 168 9c64 0 124 -4 179 -11v-355c-120 -58 -234 -87 -342 -87
c-203 0 -452 142 -452 422c0 271 220 458 530 458c112 0 251 -50 277 -101v-209z" />
    <glyph glyph-name="H" unicode="H" horiz-adv-x="863" 
d="M873 188l-7 -258c-1 -69 -16 -75 -309 -96c-18 26 -27 58 -27 97v216l-15 15c-20 -5 -57 -18 -110 -41c0 -11 0 -11 15 -131v-147l-256 -26c-21 0 -41 7 -60 21c-5 9 -11 23 -18 41l-46 279c-21 138 -31 245 -31 320v202c68 32 259 103 282 103h52l43 -422
c2 -1 3 -4 4 -7c46 4 63 6 112 32c0 49 -2 177 -5 405h61c60 -11 241 -45 246 -45c10 -6 18 -14 25 -24c13 -105 44 -381 44 -534z" />
    <glyph glyph-name="I" unicode="I" horiz-adv-x="346" 
d="M285 764l-43 -64l-13 10l43 63zM242 700l-31 -68l-12 2l30 76zM81 748l-13 -8l-23 34l13 9zM132 620l-14 -2l-50 122l13 8zM369 77c0 -176 -27 -209 -180 -209c-39 0 -76 4 -109 13c-27 44 -41 143 -41 298c0 87 4 150 13 191c8 9 36 18 84 27c-88 13 -117 45 -117 126
c0 51 29 94 73 94c5 0 11 -1 18 -2c5 9 8 19 8 29c0 8 -2 16 -6 25c14 -35 18 -42 30 -54c54 18 56 19 66 30l68 -40c17 -12 25 -34 25 -67c0 -94 -45 -141 -136 -141c8 -6 21 -9 39 -9h55c69 0 80 -14 99 -178c7 -61 11 -106 11 -133zM214 535c-8 21 -34 32 -78 32
c-31 0 -54 -7 -68 -21v-84c16 -14 31 -21 45 -21h79c15 43 22 75 22 94z" />
    <glyph glyph-name="J" unicode="J" horiz-adv-x="808" 
d="M817 721c-17 -363 -24 -427 -64 -631c-42 -214 -85 -256 -227 -264h-126c-190 0 -256 4 -363 29c-13 17 -20 44 -20 80c0 37 12 117 37 238c157 -11 244 -16 263 -16c50 0 77 10 80 31c19 113 49 311 92 592c3 3 10 10 19 20c198 -39 238 -48 309 -79z" />
    <glyph glyph-name="K" unicode="K" horiz-adv-x="640" 
d="M662 82c0 -19 -104 -158 -151 -212c-28 21 -70 52 -126 92v-84l-223 -8c-54 0 -75 62 -92 248c-18 131 -27 229 -27 292v191c49 23 219 86 243 86h44c4 -21 13 -54 27 -98l161 119c37 -33 144 -181 144 -211c0 -14 -24 -35 -225 -208c214 -189 225 -200 225 -207z" />
    <glyph glyph-name="L" unicode="L" horiz-adv-x="632" 
d="M662 -58c-93 -18 -288 -37 -371 -37c-51 0 -90 5 -115 14l-71 672c0 15 8 36 25 64c137 27 221 40 254 40c25 0 45 -13 58 -39v-352c0 -62 19 -85 70 -85c6 0 63 7 87 11c25 0 46 -9 63 -27v-261z" />
    <glyph glyph-name="M" unicode="M" horiz-adv-x="903" 
d="M918 35c0 -47 -9 -81 -27 -102c-156 -39 -156 -39 -193 -39c-19 13 -29 29 -32 48c0 91 -7 158 -28 235c-5 -2 -22 -15 -91 -71c-19 13 -50 40 -92 83c-14 -98 -21 -180 -21 -246c-47 -6 -98 -9 -152 -9s-105 3 -152 9v723c10 21 127 52 152 52c89 0 123 -16 161 -79
c4 -7 28 -52 71 -134c26 9 45 38 57 86c29 111 43 115 170 115c90 0 121 -7 125 -41c30 -222 52 -594 52 -630z" />
    <glyph glyph-name="N" unicode="N" horiz-adv-x="853" 
d="M860 3c0 -122 -6 -156 -38 -156h-247c-37 53 -94 133 -171 240c0 -69 -1 -125 -8 -231c-81 -15 -102 -15 -251 -17c3 -1 8 -1 20 -1c-70 2 -86 31 -110 192c-16 110 -42 478 -42 540c0 59 3 95 9 108c7 14 268 102 291 102c21 0 53 -46 150 -207c4 5 6 14 6 25
c-3 27 -5 50 -5 51c0 17 4 28 13 35c123 51 228 81 315 89c22 -43 36 -124 41 -243c6 -43 13 -120 20 -233z" />
    <glyph glyph-name="O" unicode="O" horiz-adv-x="1017" 
d="M1033 294c0 -249 -86 -393 -257 -432c-119 -27 -200 -40 -243 -40c-313 0 -522 197 -522 494c0 253 278 473 577 473c297 0 445 -165 445 -495zM736 294c0 33 -9 69 -28 108c-25 53 -58 79 -98 79c-142 0 -236 -85 -236 -214c0 -97 68 -170 159 -170
c115 0 203 86 203 197z" />
    <glyph glyph-name="P" unicode="P" horiz-adv-x="798" 
d="M828 468c0 -209 -116 -318 -373 -351c-31 -4 -46 -9 -60 -20c0 -76 1 -100 13 -158l17 -81c0 -30 -22 -33 -159 -33c-8 0 -31 -3 -73 -9c-23 0 -46 1 -68 3c-94 182 -113 493 -108 840c91 67 342 133 499 133c214 0 312 -102 312 -324zM525 394c0 35 -42 62 -91 62
c-18 0 -45 -11 -81 -34v-54c13 -23 40 -35 81 -35c61 0 91 20 91 61z" />
    <glyph glyph-name="Q" unicode="Q" horiz-adv-x="1045" 
d="M1082 -82c0 -44 -73 -109 -114 -109c-7 0 -35 12 -82 37c-47 24 -74 36 -81 36c-9 0 -18 -2 -27 -5c-52 -22 -169 -41 -264 -41c-314 0 -505 172 -505 473c0 287 226 491 541 491c204 0 375 -87 439 -229c25 -56 38 -131 38 -226c0 -114 -3 -133 -54 -313
c99 -78 109 -90 109 -114zM709 369c-25 69 -78 113 -136 113c-117 0 -209 -89 -209 -209c0 -64 70 -164 154 -164c11 0 20 4 27 13c-75 99 -81 107 -81 119c0 13 84 104 109 104c11 0 16 -5 124 -108z" />
    <glyph glyph-name="R" unicode="R" horiz-adv-x="808" 
d="M829 468c0 -76 -20 -134 -71 -210c-17 -25 -25 -40 -25 -47c0 -37 11 -93 34 -168s34 -131 34 -168c0 -42 -49 -54 -246 -54c-50 0 -70 48 -109 296c-3 3 -8 5 -15 5c-23 0 -47 -20 -47 -41c29 -191 33 -220 34 -232c-28 -26 -35 -27 -86 -28l-178 -7
c-44 0 -63 40 -88 160c-46 225 -46 225 -59 655c0 63 17 68 180 111c104 35 204 53 299 53c193 0 343 -62 343 -325zM527 389c0 36 -46 68 -89 68s-96 -35 -96 -65s53 -65 96 -65c35 0 89 29 89 62z" />
    <glyph glyph-name="S" unicode="S" horiz-adv-x="616" 
d="M655 54c0 -127 -134 -212 -321 -212c-53 0 -276 46 -305 57c13 193 29 260 66 260c5 0 34 -12 86 -35c53 -23 83 -35 90 -35c9 0 17 4 25 12c0 16 -12 28 -48 49c-114 68 -132 86 -165 182c-18 51 -27 96 -27 133c0 139 120 231 345 264c41 4 100 12 181 22
c25 -24 44 -133 44 -266c-17 -8 -61 -17 -132 -28c-107 -16 -109 -28 -116 -114c0 -28 35 -51 92 -61c78 -13 114 -37 153 -110c21 -41 32 -80 32 -118z" />
    <glyph glyph-name="T" unicode="T" horiz-adv-x="935" 
d="M972 501c-32 -30 -56 -34 -301 -70v-96l49 -423c0 -73 -36 -98 -140 -98c-179 0 -184 9 -216 294c-26 237 -27 237 -63 237c-16 0 -50 -7 -101 -22c-56 -15 -94 -24 -114 -26c-24 19 -34 41 -79 223c0 52 10 57 149 109c380 105 615 157 704 157c75 0 112 -31 112 -94
v-191z" />
    <glyph glyph-name="U" unicode="U" horiz-adv-x="951" 
d="M521 -129c-272 0 -507 272 -507 572c0 216 57 233 351 285c13 -11 24 -16 33 -16c-8 -46 -12 -89 -12 -130c0 -130 40 -210 121 -239c79 34 108 82 120 199c5 54 13 92 22 113c76 21 136 31 180 31c103 0 131 -16 131 -81c0 -284 -51 -734 -439 -734z" />
    <glyph glyph-name="V" unicode="V" horiz-adv-x="948" 
d="M964 609c0 -239 -198 -593 -427 -760c-15 -11 -40 -17 -75 -17c-1 0 -49 2 -75 4c-119 0 -234 201 -329 578c-31 123 -46 198 -46 225c0 80 104 160 210 160l141 -10c10 -153 14 -193 42 -260c23 -57 55 -86 95 -86c82 0 108 112 116 182c0 131 29 162 168 164h-15
c0 -1 44 -1 132 -1c42 -30 63 -90 63 -179z" />
    <glyph glyph-name="W" unicode="W" horiz-adv-x="918" 
d="M917 -43c-11 -19 -114 -51 -152 -51c-117 0 -136 24 -232 212c-20 -5 -36 -31 -49 -79c-30 -116 -49 -121 -178 -121c-97 0 -122 7 -127 40c-24 162 -50 533 -50 630c0 43 9 77 26 101c99 27 163 40 194 40c25 -17 39 -55 42 -112c6 -91 12 -147 17 -170
c20 17 51 40 92 71c19 -13 50 -40 92 -83c14 98 21 180 21 245c46 6 95 9 147 9c56 0 108 -3 157 -10v-722z" />
    <glyph glyph-name="X" unicode="X" 
d="M936 670c-16 -76 -38 -102 -255 -323c3 -9 15 -27 36 -54c76 -92 144 -243 144 -343c-174 -87 -200 -96 -284 -96c-17 26 -34 60 -51 102l-44 110c-29 -17 -56 -52 -80 -105c-53 -118 -66 -132 -97 -132c-27 0 -65 15 -114 44c-1 0 -39 26 -116 78c14 82 55 128 223 322
c-116 106 -116 106 -184 240c-33 67 -50 110 -50 127c0 47 214 117 327 117c15 -22 20 -34 95 -202c25 9 50 35 75 76c82 143 93 158 130 158c21 0 147 -61 245 -119z" />
    <glyph glyph-name="Y" unicode="Y" 
d="M935 668c-7 -47 -53 -110 -210 -277c-45 -49 -68 -77 -68 -84c5 -184 12 -327 21 -428c-31 -6 -78 -9 -139 -9c-53 0 -126 2 -218 7v389c0 13 -17 36 -51 69c-110 107 -165 192 -192 322l157 66c63 26 105 39 124 39c31 0 57 -36 100 -137c17 -38 29 -61 36 -69
c19 10 53 50 102 120c46 65 78 98 95 98c21 0 102 -35 243 -106z" />
    <glyph glyph-name="Z" unicode="Z" horiz-adv-x="678" 
d="M698 582c0 -176 -4 -184 -270 -468c16 -7 36 -10 60 -10c11 0 38 2 90 5c54 0 81 -30 81 -91c-10 -114 -10 -124 -11 -152c-6 -10 -22 -16 -49 -18l-432 -32c-130 0 -143 5 -143 123c0 98 0 98 117 217l127 147c45 55 75 100 89 134c-26 12 -68 22 -127 30
c-132 20 -167 42 -167 119c0 41 26 187 42 213c229 -19 418 -59 567 -121c23 -9 25 -26 26 -96z" />
    <glyph glyph-name="bracketleft" unicode="[" horiz-adv-x="325" 
d="M68 801c85 15 175 25 271 30c5 -33 8 -61 9 -84c-30 -3 -64 -8 -103 -17c-12 -269 -18 -471 -18 -606c0 -33 1 -84 3 -151c27 -12 62 -21 105 -28v-75c-103 4 -199 17 -288 40c-9 77 -13 158 -13 241c0 247 11 463 34 650z" />
    <glyph glyph-name="backslash" unicode="\" horiz-adv-x="468" 
d="M171 723c92 -174 202 -430 330 -767c-25 -3 -54 -5 -86 -5c-29 0 -56 1 -83 4c-78 223 -187 479 -327 768h166z" />
    <glyph glyph-name="bracketright" unicode="]" horiz-adv-x="330" 
d="M29 829c90 -3 184 -14 281 -34c14 -169 21 -392 21 -667c0 -81 -3 -159 -9 -234c-75 -17 -171 -27 -288 -30c-3 25 -5 51 -6 80c32 4 69 11 112 21c5 363 3 502 -15 753c-22 7 -54 15 -96 22v89z" />
    <glyph glyph-name="asciicircum" unicode="^" horiz-adv-x="502" 
d="M155 378h-137l165 341h171l165 -341h-137l-114 237z" />
    <glyph glyph-name="underscore" unicode="_" horiz-adv-x="500" 
d="M0 -64h536v-142h-536v142z" />
    <glyph glyph-name="grave" unicode="`" horiz-adv-x="354" 
d="M160 816c71 -23 144 -56 219 -100c-15 -42 -30 -76 -44 -102c-93 43 -170 73 -229 90c20 52 38 89 54 112z" />
    <glyph glyph-name="a" unicode="a" horiz-adv-x="724" 
d="M747 110c0 -125 -21 -149 -237 -246c-13 87 -34 159 -63 215c-47 -12 -90 -28 -128 -48c-2 -60 -8 -111 -18 -154h-91c-12 0 -13 0 -146 40c46 350 95 623 148 819c114 -9 228 -13 342 -13c144 -285 193 -442 193 -613zM416 295v72l-59 14v-86h59z" />
    <glyph glyph-name="b" unicode="b" horiz-adv-x="692" 
d="M706 18c0 -164 -147 -202 -333 -202c-42 0 -198 20 -268 35c-60 141 -89 423 -89 438v382c145 81 282 121 413 121c175 0 269 -95 269 -274c0 -133 -45 -225 -135 -278c95 -59 143 -133 143 -222zM484 407c0 25 -47 60 -79 60c-19 0 -43 -13 -70 -38l-9 -41
c63 -40 66 -40 79 -40c34 0 79 33 79 59zM476 90c0 30 -31 59 -63 59c-37 0 -64 -27 -64 -63c0 -34 30 -64 64 -64c29 0 63 37 63 68z" />
    <glyph glyph-name="c" unicode="c" horiz-adv-x="803" 
d="M830 35c0 -55 -5 -86 -16 -94c-49 -36 -111 -62 -188 -78c-10 -2 -45 -3 -106 -3c-281 0 -510 193 -510 445c0 255 227 455 510 455c176 0 310 -69 310 -160c0 -102 -21 -180 -50 -180c-16 5 -71 24 -106 36l-109 14c-187 0 -215 -103 -215 -160c0 -107 72 -160 215 -160
c82 0 82 0 220 50c30 -12 45 -67 45 -165z" />
    <glyph glyph-name="d" unicode="d" horiz-adv-x="838" 
d="M860 300c0 -254 -200 -450 -460 -450c-48 0 -161 24 -339 72l-23 697c5 63 179 131 327 131c239 0 495 -204 495 -450zM570 300c0 87 -46 150 -110 150c-76 0 -110 -85 -110 -150c0 -88 45 -150 110 -150c60 0 110 70 110 150z" />
    <glyph glyph-name="e" unicode="e" horiz-adv-x="592" 
d="M634 -17c-3 -41 -8 -110 -8 -111c-112 -11 -193 -16 -242 -16c-25 0 -124 8 -297 24c-3 2 -8 7 -15 14c-9 63 -20 169 -33 318l-18 212v205c121 61 260 92 533 121c3 -3 8 -8 14 -16l31 -205c0 -21 -15 -48 -32 -51c-152 -21 -200 -32 -250 -62l6 -47c2 -13 9 -20 22 -20
c9 0 25 5 49 14c25 9 41 14 50 14c15 0 25 -5 32 -16c30 -76 45 -119 45 -128c0 -6 -5 -18 -15 -36l-76 -20c-35 -9 -64 -22 -85 -37v-25c45 -13 93 -19 144 -19c9 0 34 2 81 7c48 0 64 -30 64 -120z" />
    <glyph glyph-name="f" unicode="f" horiz-adv-x="588" 
d="M610 480c-59 -15 -147 -40 -263 -75c0 -38 5 -65 15 -80c19 5 59 13 119 25c17 -34 37 -87 61 -158l-150 -55c-24 -10 -36 -19 -36 -28c25 -85 25 -87 25 -100v-121h-252c-43 154 -78 324 -78 383v340c96 50 214 75 454 112h78l27 -164v-79z" />
    <glyph glyph-name="g" unicode="g" horiz-adv-x="832" 
d="M843 430c-18 -25 -20 -28 -36 -28s-35 7 -56 21c-63 19 -120 28 -173 28c-145 0 -217 -58 -217 -175c0 -108 62 -175 163 -175c53 2 92 18 92 87c-21 7 -65 10 -131 10c-4 8 -5 13 -5 48l3 58c53 6 109 9 168 9c64 0 124 -4 179 -11v-355c-120 -58 -234 -87 -342 -87
c-203 0 -452 142 -452 422c0 271 220 458 530 458c112 0 251 -50 277 -101v-209z" />
    <glyph glyph-name="h" unicode="h" horiz-adv-x="863" 
d="M873 189l-7 -259c-1 -69 -16 -75 -309 -96c-18 26 -27 58 -27 97v216l-15 15c-20 -5 -57 -18 -110 -41c0 -11 0 -11 15 -131v-147l-256 -26c-21 0 -41 7 -60 21c-5 9 -11 23 -18 41l-46 279c-21 138 -31 245 -31 320v202c68 32 259 103 282 103h52l43 -422
c2 -1 3 -4 4 -7c46 4 63 6 112 32c0 49 -2 177 -5 405h61c60 -11 241 -45 246 -45c10 -6 18 -14 25 -24c13 -106 44 -382 44 -533z" />
    <glyph glyph-name="i" unicode="i" horiz-adv-x="346" 
d="M285 764l-43 -64l-13 10l43 63zM242 700l-31 -68l-12 2l30 76zM81 748l-13 -8l-23 34l13 9zM132 620l-14 -2l-50 122l13 8zM369 77c0 -176 -27 -209 -180 -209c-39 0 -76 4 -109 13c-27 44 -41 143 -41 298c0 87 4 150 13 191c8 9 36 18 84 27c-88 13 -117 45 -117 126
c0 51 29 94 73 94c5 0 11 -1 18 -2c5 9 8 19 8 29c0 8 -2 16 -6 25c14 -35 18 -42 30 -54c54 18 56 19 66 30l68 -40c17 -12 25 -34 25 -67c0 -94 -45 -141 -136 -141c8 -6 21 -9 39 -9h55c69 0 80 -14 99 -178c7 -61 11 -106 11 -133zM214 535c-8 21 -34 32 -78 32
c-31 0 -54 -7 -68 -21v-84c16 -14 31 -21 45 -21h79c15 43 22 75 22 94z" />
    <glyph glyph-name="j" unicode="j" horiz-adv-x="805" 
d="M817 721c-17 -363 -24 -427 -64 -631c-42 -214 -85 -256 -227 -264h-126c-190 0 -256 4 -363 29c-13 17 -20 44 -20 80c0 37 12 117 37 238c157 -11 244 -16 263 -16c50 0 77 10 80 31c19 113 49 311 92 592c3 3 10 10 19 20c198 -39 238 -48 309 -79z" />
    <glyph glyph-name="k" unicode="k" horiz-adv-x="640" 
d="M662 82c0 -19 -104 -158 -151 -212c-28 21 -70 52 -126 92v-84l-223 -8c-54 0 -75 62 -92 248c-18 131 -27 229 -27 292v191c49 23 219 86 243 86h44c4 -21 13 -54 27 -98l161 119c37 -33 144 -181 144 -211c0 -14 -24 -35 -225 -208c214 -189 225 -200 225 -207z" />
    <glyph glyph-name="l" unicode="l" horiz-adv-x="632" 
d="M662 -58c-93 -18 -288 -37 -371 -37c-51 0 -90 5 -115 14l-71 672c0 15 8 36 25 64c137 27 221 40 254 40c25 0 45 -13 58 -39v-352c0 -62 19 -85 70 -85c6 0 63 7 87 11c25 0 46 -9 63 -27v-261z" />
    <glyph glyph-name="m" unicode="m" horiz-adv-x="903" 
d="M918 35c0 -47 -9 -81 -27 -102c-156 -39 -156 -39 -193 -39c-19 13 -29 29 -32 48c0 91 -7 158 -28 235c-5 -2 -22 -15 -91 -71c-19 13 -50 40 -92 83c-14 -98 -21 -180 -21 -246c-47 -6 -98 -9 -152 -9s-105 3 -152 9v723c10 21 127 52 152 52c89 0 123 -16 161 -79
c4 -7 28 -52 71 -134c26 9 45 38 57 86c29 111 43 115 170 115c90 0 121 -7 125 -41c30 -222 52 -594 52 -630z" />
    <glyph glyph-name="n" unicode="n" horiz-adv-x="853" 
d="M860 3c0 -122 -6 -156 -38 -156h-247c-37 53 -94 133 -171 240c0 -69 -1 -125 -8 -231c-81 -15 -102 -15 -251 -17c3 -1 8 -1 20 -1c-70 2 -86 31 -110 192c-16 110 -42 478 -42 540c0 59 3 95 9 108c7 14 268 102 291 102c21 0 53 -46 150 -207c4 5 6 14 6 25
c-3 27 -5 50 -5 51c0 17 4 28 13 35c123 51 228 81 315 89c22 -43 36 -124 41 -243c6 -43 13 -120 20 -233z" />
    <glyph glyph-name="o" unicode="o" horiz-adv-x="1017" 
d="M1033 294c0 -249 -86 -393 -257 -432c-119 -27 -200 -40 -243 -40c-313 0 -522 197 -522 494c0 253 278 473 577 473c297 0 445 -165 445 -495zM736 294c0 33 -9 69 -28 108c-25 53 -58 79 -98 79c-142 0 -236 -85 -236 -214c0 -97 68 -170 159 -170
c115 0 203 86 203 197z" />
    <glyph glyph-name="p" unicode="p" horiz-adv-x="798" 
d="M828 468c0 -209 -116 -318 -373 -351c-31 -4 -46 -9 -60 -20c0 -76 1 -100 13 -158l17 -81c0 -30 -22 -33 -159 -33c-8 0 -31 -3 -73 -9c-23 0 -46 1 -68 3c-94 182 -113 493 -108 840c91 67 342 133 499 133c214 0 312 -102 312 -324zM525 394c0 35 -42 62 -91 62
c-18 0 -45 -11 -81 -34v-54c13 -23 40 -35 81 -35c61 0 91 20 91 61z" />
    <glyph glyph-name="q" unicode="q" horiz-adv-x="1048" 
d="M1082 -82c0 -44 -73 -109 -114 -109c-7 0 -35 12 -82 37c-47 24 -74 36 -81 36c-9 0 -18 -2 -27 -5c-52 -22 -169 -41 -264 -41c-314 0 -505 172 -505 473c0 287 226 491 541 491c204 0 375 -87 439 -229c25 -56 38 -131 38 -226c0 -114 -3 -133 -54 -313
c99 -78 109 -90 109 -114zM709 369c-25 69 -78 113 -136 113c-117 0 -209 -89 -209 -209c0 -64 70 -164 154 -164c11 0 20 4 27 13c-75 99 -81 107 -81 119c0 13 84 104 109 104c11 0 16 -5 124 -108z" />
    <glyph glyph-name="r" unicode="r" horiz-adv-x="808" 
d="M829 468c0 -76 -20 -134 -71 -210c-17 -25 -25 -40 -25 -47c0 -37 11 -93 34 -168s34 -131 34 -168c0 -42 -49 -54 -246 -54c-50 0 -70 48 -109 296c-3 3 -8 5 -15 5c-23 0 -47 -20 -47 -41c29 -191 33 -220 34 -232c-28 -26 -35 -27 -86 -28l-178 -7
c-44 0 -63 40 -88 160c-46 225 -46 225 -59 655c0 63 17 68 180 111c104 35 204 53 299 53c193 0 343 -62 343 -325zM527 389c0 36 -46 68 -89 68s-96 -35 -96 -65s53 -65 96 -65c35 0 89 29 89 62z" />
    <glyph glyph-name="s" unicode="s" horiz-adv-x="616" 
d="M655 54c0 -127 -134 -212 -321 -212c-53 0 -276 46 -305 57c13 193 29 260 66 260c5 0 34 -12 86 -35c53 -23 83 -35 90 -35c9 0 17 4 25 12c0 16 -12 28 -48 49c-114 68 -132 86 -165 182c-18 51 -27 96 -27 133c0 139 120 231 345 264c41 4 100 12 181 22
c25 -24 44 -133 44 -266c-17 -8 -61 -17 -132 -28c-107 -16 -109 -28 -116 -114c0 -28 35 -51 92 -61c78 -13 114 -37 153 -110c21 -41 32 -80 32 -118z" />
    <glyph glyph-name="t" unicode="t" horiz-adv-x="935" 
d="M972 501c-32 -30 -56 -34 -301 -70v-96l49 -423c0 -73 -36 -98 -140 -98c-179 0 -184 9 -216 294c-26 237 -27 237 -63 237c-16 0 -50 -7 -101 -22c-56 -15 -94 -24 -114 -26c-24 19 -34 41 -79 223c0 52 10 57 149 109c380 105 615 157 704 157c75 0 112 -31 112 -94
v-191z" />
    <glyph glyph-name="u" unicode="u" horiz-adv-x="930" 
d="M521 -129c-272 0 -507 272 -507 572c0 216 57 233 351 285c13 -11 24 -16 33 -16c-8 -46 -12 -89 -12 -130c0 -130 40 -210 121 -239c79 34 108 82 120 199c5 54 13 92 22 113c76 21 136 31 180 31c103 0 131 -16 131 -81c0 -284 -51 -734 -439 -734z" />
    <glyph glyph-name="v" unicode="v" horiz-adv-x="948" 
d="M964 609c0 -239 -198 -593 -427 -760c-15 -11 -40 -17 -75 -17c-1 0 -49 2 -75 4c-119 0 -234 201 -329 578c-31 123 -46 198 -46 225c0 80 104 160 210 160l141 -10c10 -153 14 -193 42 -260c23 -57 55 -86 95 -86c82 0 108 112 116 182c0 131 29 162 168 164h-15
c0 -1 44 -1 132 -1c42 -30 63 -90 63 -179z" />
    <glyph glyph-name="w" unicode="w" horiz-adv-x="918" 
d="M917 -43c-11 -19 -114 -51 -152 -51c-117 0 -136 24 -232 212c-20 -5 -36 -31 -49 -79c-30 -116 -49 -121 -178 -121c-97 0 -122 7 -127 40c-24 162 -50 533 -50 630c0 43 9 77 26 101c99 27 163 40 194 40c25 -17 39 -55 42 -112c6 -91 12 -147 17 -170
c20 17 51 40 92 71c19 -13 50 -40 92 -83c14 98 21 180 21 245c46 6 95 9 147 9c56 0 108 -3 157 -10v-722z" />
    <glyph glyph-name="x" unicode="x" 
d="M936 670c-16 -76 -38 -102 -255 -323c3 -9 15 -27 36 -54c76 -92 144 -243 144 -343c-174 -87 -200 -96 -284 -96c-17 26 -34 60 -51 102l-44 110c-29 -17 -56 -52 -80 -105c-53 -118 -66 -132 -97 -132c-27 0 -65 15 -114 44c-1 0 -39 26 -116 78c14 82 55 128 223 322
c-116 106 -116 106 -184 240c-33 67 -50 110 -50 127c0 47 214 117 327 117c15 -22 20 -34 95 -202c25 9 50 35 75 76c82 143 93 158 130 158c21 0 147 -61 245 -119z" />
    <glyph glyph-name="y" unicode="y" 
d="M935 668c-7 -47 -53 -110 -210 -277c-45 -49 -68 -77 -68 -84c5 -184 12 -327 21 -428c-31 -6 -78 -9 -139 -9c-53 0 -126 2 -218 7v389c0 13 -17 36 -51 69c-110 107 -165 192 -192 322l157 66c63 26 105 39 124 39c31 0 57 -36 100 -137c17 -38 29 -61 36 -69
c19 10 53 50 102 120c46 65 78 98 95 98c21 0 102 -35 243 -106z" />
    <glyph glyph-name="z" unicode="z" horiz-adv-x="677" 
d="M698 582c0 -176 -4 -184 -270 -468c16 -7 36 -10 60 -10c11 0 38 2 90 5c54 0 81 -30 81 -91c-10 -114 -10 -124 -11 -152c-6 -10 -22 -16 -49 -18l-432 -32c-130 0 -143 5 -143 123c0 98 0 98 117 217l127 147c45 55 75 100 89 134c-26 12 -68 22 -127 30
c-132 20 -167 42 -167 119c0 41 26 187 42 213c229 -19 418 -59 567 -121c23 -9 25 -26 26 -96z" />
    <glyph glyph-name="braceleft" unicode="{" horiz-adv-x="366" 
d="M197 -141c-13 33 -28 100 -45 201c-29 168 -55 225 -140 299c57 52 68 77 92 194c23 115 57 205 100 271c78 -5 141 -10 188 -15c-58 -69 -84 -135 -109 -277c-13 -71 -37 -129 -72 -174c58 -57 79 -116 102 -278c13 -87 31 -156 55 -208c-86 -11 -118 -13 -171 -13z" />
    <glyph glyph-name="bar" unicode="|" horiz-adv-x="352" 
d="M191 715h155v-894h-155v894z" />
    <glyph glyph-name="braceright" unicode="}" horiz-adv-x="385" 
d="M65 811c79 4 139 6 179 7c31 -52 55 -117 70 -196c35 -178 45 -219 90 -276c-61 -61 -86 -116 -127 -266c-21 -75 -51 -147 -91 -216c-67 2 -126 10 -177 23c60 72 76 109 96 204c24 116 60 204 107 265c-36 64 -43 108 -53 198c-11 97 -42 182 -94 257z" />
    <glyph glyph-name="asciitilde" unicode="~" horiz-adv-x="619" 
d="M175 255l-75 62c39 96 92 144 158 144c24 0 60 -11 108 -33c48 -21 80 -32 97 -32c29 0 55 23 80 68l75 -63c-43 -103 -89 -142 -168 -142c-21 0 -55 10 -102 31s-79 32 -97 32c-25 0 -51 -22 -76 -67z" />
    <glyph glyph-name="Odieresis" unicode="&#xd6;" horiz-adv-x="426" 
 />
  </font>
</defs>
</svg>
